<svg width="22" height="22" viewBox="0 0 22 22" fill="none" xmlns="http://www.w3.org/2000/svg">
<path fill-rule="evenodd" clip-rule="evenodd" d="M0.271361 0.0684207C0.0482676 0.178549 -0.000244141 0.342257 -0.000244141 0.985221C-0.000244141 1.94485 0.0450879 1.98884 1.06607 2.02006L1.77114 2.04165L3.32683 7.15771L4.88251 12.2738L4.21963 13.0488C3.84722 13.4842 3.5021 13.9321 3.43206 14.071C3.07619 14.7765 3.10468 15.4715 3.51563 16.1078C3.83996 16.61 4.31502 16.9018 4.94116 16.9834C5.19889 17.017 7.4184 17.0274 12.4822 17.0187C19.2554 17.007 19.6642 17.0021 19.7695 16.9305C19.953 16.8057 19.9802 16.6845 19.9802 15.9922C19.9802 15.3057 19.9527 15.1974 19.7485 15.0802C19.6791 15.0403 17.9701 15.0232 12.4244 15.0067L5.1909 14.9852L5.93185 14.1252C6.33937 13.6522 6.7122 13.2119 6.76037 13.1469L6.84794 13.0286H11.6493C14.8559 13.0286 16.5615 13.0132 16.7846 12.9821C17.4679 12.887 18.0197 12.4949 18.3382 11.8779C18.7808 11.0208 21.8803 4.35334 21.9363 4.13799C22.1525 3.30741 21.7781 2.48504 21.0257 2.1375L20.8181 2.04165L12.3354 2.02015L3.85263 1.99865L3.79794 1.82664C3.7679 1.73204 3.66276 1.3934 3.56436 1.07411C3.3985 0.536109 3.37078 0.479347 3.18546 0.299255C2.89314 0.0151843 2.80248 -0.00107041 1.52016 4.76385e-05C0.59831 0.000864675 0.384584 0.0125612 0.271361 0.0684207ZM5.59033 18.0634C5.2511 18.13 4.86588 18.3433 4.59483 18.6146C3.81096 19.3991 3.81628 20.6323 4.60695 21.4235C5.68796 22.5054 7.55014 21.9889 7.92225 20.5041C8.27975 19.0775 7.0389 17.7787 5.59033 18.0634ZM17.574 18.0641C17.2661 18.1242 16.8553 18.3509 16.6109 18.5956C16.2647 18.942 16.0894 19.2924 16.0289 19.7584C15.9039 20.7234 16.5326 21.6751 17.4666 21.9345C17.7437 22.0116 18.2669 22.011 18.5408 21.9333C19.9775 21.5262 20.4701 19.6931 19.4276 18.6332C18.9378 18.1352 18.2657 17.9289 17.574 18.0641Z" fill="#005944"/>
</svg>
