<svg width="22" height="22" viewBox="0 0 22 22" fill="none" xmlns="http://www.w3.org/2000/svg">
<path fill-rule="evenodd" clip-rule="evenodd" d="M10.8013 0.0142561C10.4193 0.10996 10.3615 0.161807 5.28208 4.9613C1.23409 8.78626 0.191646 9.79332 0.105693 9.96191C0.02185 10.1265 -0.00147813 10.237 7.13382e-05 10.4625C0.00265379 10.8374 0.0964397 11.0209 0.480966 11.4032C0.72376 11.6445 0.825207 11.7131 1.02982 11.7745C1.30825 11.8579 1.5733 11.8411 1.7888 11.7261C1.8615 11.6873 2.09224 11.4973 2.30159 11.3037C2.51094 11.1101 2.69322 10.9517 2.70669 10.9517C2.72016 10.9517 2.73118 13.2053 2.73118 15.9597C2.73118 21.5345 2.71732 21.2642 3.02119 21.6111C3.10702 21.709 3.25602 21.8327 3.35235 21.8858C3.52434 21.9808 3.5648 21.9827 5.62955 21.9956C7.44643 22.0069 7.76351 21.9991 7.96632 21.9384C8.25211 21.8526 8.5209 21.6154 8.64542 21.3389C8.73404 21.1421 8.73555 21.0846 8.74734 17.5099L8.75931 13.8807L11.2007 13.8922L13.642 13.9036L13.6635 17.588C13.6876 21.6997 13.6622 21.3827 13.9941 21.7152C14.2839 22.0055 14.3303 22.0101 16.8121 21.9955C19.2958 21.9809 19.1868 21.9953 19.5225 21.6385C19.8353 21.3061 19.8184 21.6251 19.8184 16.0708C19.8184 13.3286 19.8344 11.0849 19.8539 11.0849C19.8735 11.0849 19.9342 11.1339 19.9888 11.1939C20.3123 11.5491 20.5869 11.6154 20.9695 11.4306C21.21 11.3145 21.7014 10.8177 21.8722 10.5182C22.0379 10.2275 22.0431 9.78098 21.8842 9.48974C21.8025 9.34011 20.5706 8.20409 16.748 4.75324C13.8299 2.11899 11.6404 0.174236 11.5312 0.11977C11.3454 0.0269515 10.9682 -0.0275145 10.8013 0.0142561Z" fill="#BBBBBB"/>
</svg>
