<svg width="22" height="22" viewBox="0 0 22 22" fill="none" xmlns="http://www.w3.org/2000/svg">
<circle cx="11" cy="11" r="11" fill="#4DAC97" fill-opacity="0.25"/>
<g clip-path="url(#clip0_417_1832)">
<path d="M14.9356 8.64119L14.9531 8.93751C14.9559 9.21835 14.9531 9.19291 14.9531 9.45314C14.9531 12.1942 12.793 14.0938 9.79687 14.0938C9.40259 14.0938 8.76562 14.0938 8.76562 14.0938C9.58375 14.894 10.5356 15.3828 11.8594 15.3828C12.1409 15.3828 12.4155 15.3574 12.6826 15.3137L14.6094 16.5V14.5503C15.654 13.8346 16.3281 12.7236 16.3281 11.4723C16.3281 10.3572 15.7919 9.35378 14.9356 8.64119ZM8.98424 13.3158C9.25168 13.3592 9.85908 13.4062 10.1406 13.4062C12.6088 13.4062 14.2656 11.5696 14.2656 9.41015C14.2656 7.25071 12.1952 5.5 10.1406 5.5C7.66907 5.5 5.67188 7.25072 5.67188 9.41015C5.67188 10.6611 6.14865 11.7232 7.04688 12.4881V14.4375L8.98424 13.3158ZM12.0313 8.93749C12.3159 8.93749 12.5469 9.1685 12.5469 9.45312C12.5469 9.73809 12.3159 9.96875 12.0313 9.96875C11.7466 9.96875 11.5156 9.73809 11.5156 9.45312C11.5156 9.1685 11.7466 8.93749 12.0313 8.93749ZM9.96876 8.93749C10.2534 8.93749 10.4844 9.1685 10.4844 9.45312C10.4844 9.73809 10.2534 9.96875 9.96876 9.96875C9.68413 9.96875 9.45314 9.73809 9.45314 9.45312C9.45312 9.1685 9.68413 8.93749 9.96876 8.93749ZM7.90626 8.93749C8.19088 8.93749 8.42188 9.1685 8.42188 9.45312C8.42188 9.73809 8.19088 9.96875 7.90626 9.96875C7.62162 9.96875 7.39063 9.73809 7.39063 9.45312C7.39063 9.1685 7.62162 8.93749 7.90626 8.93749Z" fill="#4DAC97"/>
</g>
<defs>
<clipPath id="clip0_417_1832">
<rect width="11" height="11" fill="white" transform="translate(5.5 5.5)"/>
</clipPath>
</defs>
</svg>
