<svg width="24" height="24" viewBox="0 0 24 24" fill="none" xmlns="http://www.w3.org/2000/svg">
<circle cx="12" cy="12" r="12" fill="#4DAC97"/>
<g clip-path="url(#clip0_311_4649)">
<path d="M9.49436 6.44537C9.10057 5.94098 8.37093 5.85238 7.86942 6.24443L6.95445 6.95902C6.45065 7.35222 6.36377 8.08188 6.7564 8.58453L7.11253 9.04029L9.8505 6.90111L9.67214 6.67353L9.49436 6.44537Z" fill="white"/>
<path d="M6.78827 12.2099C6.78827 13.9594 7.64996 15.5073 8.97262 16.453L7.82312 17.5972L8.22848 18.0009L9.46832 16.7662C10.2177 17.1838 11.0811 17.4218 12.0001 17.4218C12.9006 17.4218 13.7473 17.1936 14.4862 16.7917L15.7005 18.0009L16.1059 17.5972L14.9859 16.4819C16.3317 15.5397 17.212 13.9773 17.212 12.2099C17.212 9.33122 14.8788 6.99805 12.0001 6.99805C9.12202 6.99805 6.78827 9.33181 6.78827 12.2099ZM12.5792 12.2053V12.7867H12.5763V12.789H12.0001V12.7867H9.68374V12.2053H12.0001V8.73534H12.5763V12.2053H12.5792V12.2053Z" fill="white"/>
<path d="M17.066 8.81264L17.2438 8.58448C17.6376 8.08009 17.5472 7.35101 17.0458 6.95897L16.1314 6.24438C15.6275 5.85118 14.8985 5.94267 14.5064 6.44532L14.1503 6.90106L16.8882 9.04081L17.066 8.81264Z" fill="white"/>
</g>
<defs>
<clipPath id="clip0_311_4649">
<rect width="12" height="12" fill="white" transform="translate(6 6)"/>
</clipPath>
</defs>
</svg>
