<svg width="24" height="24" viewBox="0 0 24 24" fill="none" xmlns="http://www.w3.org/2000/svg">
<circle cx="12" cy="12" r="12" fill="#4DAC97"/>
<path d="M7.99524 6.00186V6.65798L9.32883 6.66191V6.00188C9.32502 5.10586 7.99208 5.11687 7.99524 6.00186ZM14.6645 6.00186V6.66579H9.32883V8.6693C9.28494 9.57828 7.96029 9.53113 7.99524 8.6693V6.66579H5.99745C5.62921 6.66726 5.33186 6.96682 5.33326 7.33493V10.0024H18.6666V7.33493C18.668 6.96479 18.3675 6.66438 17.9972 6.66579H15.9994V6.00186C15.9848 5.10315 14.6521 5.11964 14.6645 6.00186ZM14.6645 6.66969H15.9994V8.6693C15.985 9.56251 14.6525 9.5466 14.6645 8.6693V6.66969ZM5.33326 11.3302V17.9969C5.33114 18.3655 5.6287 18.6659 5.99745 18.6673C9.99736 18.6673 13.9973 18.6673 17.9972 18.6673C18.368 18.6687 18.6687 18.3675 18.6666 17.9969V11.3302H5.33326ZM7.99524 11.9994H9.32883C10.2171 11.992 10.2256 13.3248 9.32883 13.3337H7.99524C7.11668 13.3442 7.10259 12.0119 7.99524 11.9994ZM11.3331 11.9994H12.6667C13.5555 12.0018 13.5525 13.3348 12.6667 13.3337H11.3331C10.4382 13.3249 10.4465 11.9921 11.3331 11.9994ZM14.6645 11.9994H15.9994C16.8786 11.9826 16.8984 13.3141 15.9994 13.3337H14.6645C13.773 13.3249 13.7813 11.9921 14.6645 11.9994ZM7.99524 14.6668H9.32883C10.2136 14.6521 10.2291 15.9842 9.32883 15.9999H7.99524C7.1099 15.9986 7.10939 14.6655 7.99524 14.6668ZM11.3331 14.6668H12.6667C13.5621 14.6798 13.546 16.0118 12.6667 15.9999H11.3331C10.458 16.0241 10.4266 14.6949 11.3331 14.6668ZM14.6645 14.6668H15.9994C16.8967 14.6801 16.8802 16.0121 15.9994 15.9999H14.6645C13.7695 15.9842 13.7848 14.6521 14.6645 14.6668Z" fill="white"/>
</svg>
