<svg width="22" height="22" viewBox="0 0 22 22" fill="none" xmlns="http://www.w3.org/2000/svg">
<path d="M5.49373 2.75231V3.65448L7.32741 3.65988V2.75234C7.32218 1.52031 5.48939 1.53545 5.49373 2.75231ZM14.664 2.75231V3.66522H7.32741V6.42004C7.26706 7.66989 5.44567 7.60506 5.49373 6.42004V3.66522H2.74677C2.24044 3.66723 1.83158 4.07914 1.83351 4.58528V8.25301H20.1668V4.58528C20.1687 4.07634 19.7555 3.66328 19.2464 3.66522H16.4994V2.75231C16.4793 1.51659 14.647 1.53925 14.664 2.75231ZM14.664 3.67059H16.4994V6.42004C16.4797 7.64821 14.6475 7.62633 14.664 6.42004V3.67059ZM1.83351 10.0788V19.2455C1.83059 19.7523 2.23973 20.1653 2.74677 20.1673C8.24665 20.1673 13.7465 20.1673 19.2464 20.1673C19.7562 20.1693 20.1698 19.7551 20.1668 19.2455V10.0788H1.83351ZM5.49373 10.9989H7.32741C8.54882 10.9887 8.56049 12.8213 7.32741 12.8337H5.49373C4.28571 12.848 4.26634 11.0161 5.49373 10.9989ZM10.0833 10.9989H11.917C13.1391 11.0022 13.135 12.8351 11.917 12.8337H10.0833C8.85274 12.8215 8.86419 10.9889 10.0833 10.9989ZM14.664 10.9989H16.4994C17.7083 10.9758 17.7355 12.8066 16.4994 12.8337H14.664C13.4382 12.8215 13.4496 10.9889 14.664 10.9989ZM5.49373 14.6666H7.32741C8.54404 14.6464 8.56529 16.4781 7.32741 16.4996H5.49373C4.27639 16.4979 4.27569 14.6648 5.49373 14.6666ZM10.0833 14.6666H11.917C13.1482 14.6844 13.126 16.516 11.917 16.4996H10.0833C8.87997 16.5329 8.8368 14.7052 10.0833 14.6666ZM14.664 14.6666H16.4994C17.7333 14.6848 17.7105 16.5164 16.4994 16.4996H14.664C13.4333 16.478 13.4544 14.6464 14.664 14.6666Z" fill="#4DAC97"/>
</svg>
