<svg width="24" height="24" viewBox="0 0 24 24" fill="none" xmlns="http://www.w3.org/2000/svg">
<circle cx="12" cy="12" r="12" fill="#4DAC97"/>
<g clip-path="url(#clip0_311_4643)">
<path d="M17.9744 15.2978C17.9405 15.1955 17.7246 15.0449 17.3268 14.8462C17.219 14.7836 17.0654 14.6985 16.8668 14.5905C16.6679 14.4825 16.4874 14.383 16.3256 14.2921C16.1634 14.2012 16.0115 14.1131 15.8696 14.028C15.8469 14.011 15.7759 13.9614 15.6565 13.8788C15.5371 13.7965 15.4364 13.7354 15.3539 13.6955C15.2715 13.6559 15.1905 13.6359 15.1109 13.6359C14.9973 13.6359 14.8554 13.717 14.685 13.8788C14.5146 14.0408 14.3583 14.2168 14.2164 14.4073C14.0744 14.5977 13.9238 14.7737 13.7648 14.9357C13.6057 15.0977 13.4749 15.1786 13.3727 15.1786C13.3215 15.1786 13.2575 15.1643 13.1809 15.1361C13.1043 15.1077 13.046 15.0834 13.006 15.0638C12.9664 15.0437 12.8983 15.0041 12.8017 14.9443C12.7049 14.8846 12.651 14.8519 12.6397 14.8462C11.8613 14.4143 11.1937 13.9199 10.6369 13.3633C10.0802 12.8064 9.58579 12.1389 9.154 11.3604C9.14833 11.349 9.11558 11.295 9.05597 11.1985C8.99627 11.1019 8.95648 11.0338 8.9366 10.9939C8.91672 10.9542 8.89257 10.8959 8.86421 10.8192C8.83585 10.7425 8.82161 10.6786 8.82161 10.6275C8.82161 10.5252 8.9026 10.3945 9.06454 10.2354C9.22645 10.0764 9.40263 9.92575 9.5929 9.78381C9.78332 9.64187 9.95932 9.48557 10.1213 9.31518C10.2832 9.1447 10.3642 9.00273 10.3642 8.88912C10.3642 8.80963 10.3443 8.72858 10.3045 8.64622C10.2648 8.56368 10.2037 8.46297 10.1213 8.34359C10.0388 8.22428 9.98914 8.15332 9.97206 8.13049C9.88693 7.98855 9.79896 7.83658 9.70794 7.67464C9.61693 7.51272 9.51758 7.33225 9.40958 7.13341C9.30167 6.93466 9.21651 6.7812 9.15394 6.67326C8.95519 6.27561 8.80466 6.05961 8.70236 6.02564C8.66257 6.0086 8.60286 6 8.5234 6C8.36991 6 8.16967 6.02836 7.92253 6.08525C7.67531 6.14206 7.48077 6.20164 7.33871 6.26424C7.05462 6.38349 6.75351 6.73006 6.4353 7.30383C6.14554 7.8378 6.00067 8.36631 6.00067 8.88897C6.00067 9.04225 6.01061 9.19139 6.03049 9.3364C6.05037 9.48127 6.0859 9.64464 6.13709 9.8265C6.18819 10.0083 6.22942 10.1433 6.26058 10.2313C6.29178 10.3193 6.35002 10.4769 6.43527 10.7043C6.52041 10.9315 6.5716 11.0707 6.58864 11.1218C6.78748 11.6787 7.02327 12.1758 7.29596 12.6133C7.74462 13.3405 8.35689 14.0921 9.13242 14.8677C9.90797 15.6432 10.6594 16.2554 11.3867 16.7043C11.8241 16.9769 12.3214 17.2127 12.8782 17.4117C12.9293 17.4286 13.0685 17.4797 13.2957 17.5651C13.5229 17.6503 13.6807 17.7086 13.7687 17.7398C13.8567 17.7711 13.9918 17.8124 14.1734 17.8636C14.3554 17.9147 14.5187 17.9503 14.6635 17.9703C14.8085 17.9899 14.9576 18 15.111 18C15.6336 18 16.1621 17.8551 16.6962 17.5653C17.2699 17.2473 17.6164 16.9461 17.7357 16.6618C17.7984 16.5199 17.8579 16.3253 17.9147 16.0781C17.9717 15.8309 18 15.6307 18 15.4773C18.0001 15.3975 17.9916 15.3379 17.9744 15.2978Z" fill="white"/>
</g>
<defs>
<clipPath id="clip0_311_4643">
<rect width="12" height="12" fill="white" transform="translate(6 6)"/>
</clipPath>
</defs>
</svg>
