<svg width="22" height="22" viewBox="0 0 22 22" fill="none" xmlns="http://www.w3.org/2000/svg">
<circle cx="11" cy="11" r="11" fill="#4DAC97" fill-opacity="0.25"/>
<g clip-path="url(#clip0_417_1839)">
<path d="M16.4767 14.023C16.4456 13.9292 16.2476 13.7911 15.883 13.609C15.7842 13.5516 15.6434 13.4736 15.4613 13.3746C15.279 13.2756 15.1136 13.1844 14.9652 13.1011C14.8166 13.0178 14.6773 12.937 14.5472 12.859C14.5264 12.8434 14.4613 12.7979 14.3519 12.7222C14.2425 12.6468 14.1501 12.5907 14.0745 12.5542C13.999 12.5179 13.9247 12.4996 13.8518 12.4996C13.7477 12.4996 13.6176 12.5739 13.4614 12.7222C13.3052 12.8707 13.1619 13.0321 13.0318 13.2067C12.9016 13.3813 12.7636 13.5426 12.6179 13.691C12.472 13.8395 12.3521 13.9137 12.2585 13.9137C12.2115 13.9137 12.1528 13.9006 12.0826 13.8748C12.0124 13.8487 11.959 13.8264 11.9223 13.8085C11.886 13.7901 11.8236 13.7538 11.735 13.6989C11.6462 13.6442 11.5969 13.6142 11.5865 13.609C10.873 13.2131 10.261 12.76 9.75059 12.2497C9.24029 11.7392 8.7871 11.1273 8.39128 10.4137C8.38609 10.4033 8.35607 10.3538 8.30142 10.2653C8.2467 10.1767 8.21022 10.1143 8.192 10.0777C8.17377 10.0413 8.15164 9.98791 8.12564 9.91762C8.09965 9.84732 8.08659 9.78876 8.08659 9.74183C8.08659 9.64814 8.16083 9.52829 8.30928 9.38244C8.4577 9.23668 8.61919 9.0986 8.79361 8.96849C8.96816 8.83838 9.12949 8.69511 9.27797 8.53892C9.42638 8.38264 9.50059 8.2525 9.50059 8.14836C9.50059 8.07549 9.48237 8.0012 9.44595 7.9257C9.4095 7.85004 9.35352 7.75772 9.27797 7.64829C9.20239 7.53892 9.15683 7.47388 9.14118 7.45295C9.06314 7.32283 8.9825 7.18353 8.89907 7.03508C8.81563 6.88666 8.72457 6.72123 8.62557 6.53896C8.52665 6.35677 8.44858 6.2161 8.39123 6.11715C8.20904 5.75265 8.07105 5.55464 7.97728 5.52351C7.9408 5.50788 7.88608 5.5 7.81323 5.5C7.67253 5.5 7.48898 5.526 7.26244 5.57815C7.03581 5.63022 6.85749 5.68484 6.72727 5.74222C6.46685 5.85154 6.19084 6.16922 5.89914 6.69518C5.63353 7.18465 5.50073 7.66912 5.50073 8.14822C5.50073 8.28873 5.50984 8.42544 5.52807 8.55837C5.54629 8.69116 5.57885 8.84092 5.62578 9.00762C5.67263 9.17426 5.71042 9.29806 5.73898 9.37867C5.76758 9.45934 5.82097 9.60384 5.89912 9.81224C5.97716 10.0206 6.02408 10.1481 6.03971 10.195C6.22197 10.7054 6.43812 11.1611 6.68808 11.5622C7.09935 12.2288 7.6606 12.9177 8.3715 13.6287C9.08243 14.3396 9.77122 14.9008 10.4379 15.3122C10.8389 15.5622 11.2948 15.7783 11.8051 15.9607C11.852 15.9762 11.9795 16.0231 12.1878 16.1014C12.3962 16.1795 12.5407 16.2329 12.6214 16.2615C12.7021 16.2902 12.8259 16.328 12.9924 16.3749C13.1593 16.4219 13.3089 16.4544 13.4417 16.4728C13.5746 16.4908 13.7113 16.5 13.8518 16.5C14.3309 16.5 14.8154 16.3672 15.305 16.1016C15.8309 15.81 16.1485 15.5339 16.2578 15.2733C16.3153 15.1432 16.3698 14.9648 16.4219 14.7382C16.4741 14.5117 16.5001 14.3282 16.5001 14.1875C16.5002 14.1144 16.4924 14.0598 16.4767 14.023Z" fill="#4DAC97"/>
</g>
<defs>
<clipPath id="clip0_417_1839">
<rect width="11" height="11" fill="white" transform="translate(5.5 5.5)"/>
</clipPath>
</defs>
</svg>
