<svg width="22" height="22" viewBox="0 0 22 22" fill="none" xmlns="http://www.w3.org/2000/svg">
<path fill-rule="evenodd" clip-rule="evenodd" d="M0.562327 0.0985864C0.307007 0.215849 0.192601 0.335526 0.0814147 0.601607C0.00945497 0.773879 -0.000955252 1.34468 6.43118e-05 5.05404C0.0011912 9.09361 0.00628896 9.32003 0.101538 9.52976C0.156701 9.65126 0.293162 9.82031 0.404724 9.90543L0.607563 10.0602L4.93153 10.0764C7.86342 10.0874 9.31834 10.0743 9.45078 10.0358C9.69381 9.96505 10.0165 9.61702 10.0597 9.37917C10.0774 9.28144 10.0848 7.26764 10.0761 4.90398L10.0604 0.606384L9.90561 0.403522C9.8205 0.291949 9.65147 0.155473 9.52998 0.100304C9.32022 0.00504467 9.09506 0 5.04304 0C1.017 0 0.764898 0.0055278 0.562327 0.0985864ZM12.4689 0.100304C12.3474 0.155473 12.1784 0.291949 12.0933 0.403522L11.9385 0.606437L11.9229 4.90398C11.9144 7.26764 11.9216 9.28053 11.939 9.37708C11.9783 9.59523 12.2555 9.9182 12.486 10.0145C12.6269 10.0734 13.4643 10.0868 16.9407 10.0859C20.98 10.0847 21.234 10.0791 21.4366 9.98609C21.6919 9.86883 21.8063 9.74915 21.9175 9.48307C21.9894 9.31091 22 8.73935 22 5.04234C22 1.34532 21.9894 0.773771 21.9175 0.601607C21.8063 0.335526 21.6919 0.215849 21.4366 0.0985864C21.234 0.0055278 20.9819 0 16.9558 0C12.9038 0 12.6787 0.00504467 12.4689 0.100304ZM0.562434 11.9962C0.320476 12.1224 0.208592 12.2383 0.0998207 12.4752C0.00677204 12.6778 0.00124483 12.9299 0.00124483 16.9564C0.00124483 20.9829 0.00677204 21.235 0.0998207 21.4376C0.217071 21.693 0.336735 21.8074 0.602788 21.9186C0.77504 21.9905 1.34578 22.001 5.05474 21.9999C9.09388 21.9988 9.32027 21.9937 9.52998 21.8985C9.65147 21.8433 9.8205 21.7068 9.90561 21.5952L10.0604 21.3924L10.0761 17.0948C10.0848 14.7311 10.0775 12.7182 10.06 12.6217C10.0205 12.4035 9.74334 12.0805 9.51292 11.9842C9.37206 11.9253 8.52882 11.9118 5.03134 11.912C1.2295 11.9124 0.704422 11.9222 0.562434 11.9962ZM12.4741 11.986C12.2518 12.0836 11.9773 12.4096 11.9388 12.6217C11.9213 12.7182 11.9141 14.7311 11.9227 17.0948L11.9385 21.3924L12.0933 21.5952C12.1784 21.7068 12.3474 21.8433 12.4689 21.8985C12.6787 21.9937 12.9038 21.9988 16.9558 21.9988C20.9819 21.9988 21.234 21.9932 21.4366 21.9002C21.6919 21.7829 21.8063 21.6632 21.9175 21.3971C21.9894 21.2249 21.9998 20.6541 21.9988 16.9447C21.9977 12.9051 21.9926 12.6787 21.8973 12.469C21.8422 12.3475 21.7057 12.1784 21.5942 12.0933L21.3913 11.9385L17.0137 11.9267C13.4776 11.9172 12.605 11.9286 12.4741 11.986Z" fill="#005944"/>
</svg>
