<svg width="14" height="16" viewBox="0 0 14 16" fill="none" xmlns="http://www.w3.org/2000/svg">
<path d="M12.1043 2.01803H9.28714C9.10772 0.878607 8.14771 0 6.96945 0C5.7912 0 4.81268 0.878607 4.65175 2.01803H1.87535C1.33522 2.01803 0.896851 2.45827 0.896851 2.99653V3.99537C0.896851 4.4948 1.2557 4.89433 1.73662 4.95353V14.7015C1.73662 15.421 2.31558 16 3.03512 16H10.9648C11.6844 16 12.2633 15.421 12.2633 14.7015V4.97203C12.7424 4.89249 13.1031 4.49297 13.1031 4.01388V3.01504C13.0828 2.45827 12.6425 2.01803 12.1043 2.01803ZM6.96945 0.739884C7.74819 0.739884 8.38819 1.28001 8.52691 2.01803H5.39164C5.55072 1.29849 6.19072 0.739884 6.96945 0.739884ZM11.5049 14.7237C11.5049 15.0234 11.2645 15.2823 10.9463 15.2823H3.01477C2.71512 15.2823 2.45616 15.0419 2.45616 14.7237V4.99422H11.4865V14.7237H11.5049ZM12.3429 3.99537C12.3429 4.13596 12.243 4.23585 12.1024 4.23585H1.87349C1.73291 4.23585 1.63302 4.13596 1.63302 3.99537V2.99653C1.63302 2.85595 1.73291 2.75606 1.87349 2.75606H12.082C12.2226 2.75606 12.3225 2.85595 12.3225 2.99653V3.99537H12.3429ZM4.11349 13.3642V7.05296C4.11349 6.8532 4.27256 6.69411 4.47234 6.69411C4.67212 6.69411 4.83119 6.85318 4.83119 7.05296V13.3642C4.83119 13.5639 4.67212 13.723 4.47234 13.723C4.27258 13.7452 4.11349 13.5639 4.11349 13.3642ZM6.64946 13.3642V7.05296C6.64946 6.8532 6.80853 6.69411 7.00831 6.69411C7.20807 6.69411 7.36716 6.85318 7.36716 7.05296V13.3642C7.36716 13.5639 7.20809 13.723 7.00831 13.723C6.81037 13.7452 6.64946 13.5639 6.64946 13.3642ZM9.18725 13.3642V7.05296C9.18725 6.8532 9.34632 6.69411 9.5461 6.69411C9.74588 6.69411 9.90495 6.85318 9.90495 7.05296V13.3642C9.90495 13.5639 9.74588 13.723 9.5461 13.723C9.36668 13.7452 9.18725 13.5639 9.18725 13.3642Z" fill="#097AC6"/>
</svg>
