<svg width="14" height="14" viewBox="0 0 14 14" fill="none" xmlns="http://www.w3.org/2000/svg">
<path d="M3.81908 14.0001C2.88347 14.0001 2.00779 13.6031 1.37547 12.9708C0.15025 11.7456 -0.191314 9.60654 1.52647 7.88876C2.53294 6.88228 6.56454 2.85097 8.57706 0.83802C9.2915 0.123582 10.2009 -0.152231 11.0715 0.0810286C11.9265 0.310019 12.6273 1.01051 12.8563 1.86542C13.0896 2.73655 12.8137 3.64568 12.0994 4.36012L5.35683 11.1029C4.97185 11.4878 4.53707 11.7157 4.09987 11.762C3.66708 11.8075 3.25379 11.6682 2.9646 11.3791C2.44001 10.8547 2.36529 9.86755 3.23728 8.99599L7.97335 4.25964C8.1679 4.06509 8.48313 4.06509 8.67768 4.25964C8.87223 4.45419 8.87223 4.76957 8.67768 4.96397L3.94175 9.70018C3.5323 10.1095 3.49473 10.5003 3.66907 10.6746C3.7455 10.7511 3.86149 10.7855 3.99512 10.7711C4.2002 10.7495 4.43375 10.617 4.65249 10.3983L11.3951 3.65578C11.8576 3.19325 12.035 2.64902 11.8941 2.12358C11.7553 1.60597 11.3315 1.18215 10.8139 1.04339C10.2886 0.90249 9.74422 1.07982 9.2814 1.5425C7.26901 3.55502 3.23728 7.5869 2.2308 8.59309C0.917204 9.90669 1.23173 11.4181 2.0798 12.2662C2.92788 13.1143 4.43916 13.4291 5.75318 12.1153L12.8038 5.06459C12.9983 4.87004 13.3136 4.87004 13.5081 5.06459C13.7027 5.25914 13.7027 5.57452 13.5081 5.76892L6.45752 12.8198C5.62652 13.6511 4.69633 14.0001 3.81908 14.0001Z" fill="#B3B3B3"/>
</svg>
