<svg width="16" height="16" viewBox="0 0 16 16" fill="none" xmlns="http://www.w3.org/2000/svg">
<path d="M8.00008 0.666992C3.95008 0.666992 0.666748 3.95016 0.666748 8.00033C0.666748 12.0505 3.95008 15.3337 8.00008 15.3337C12.0501 15.3337 15.3334 12.0505 15.3334 8.00033C15.3334 3.95016 12.0501 0.666992 8.00008 0.666992ZM8.00008 14.0003C4.68641 14.0003 2.00008 11.314 2.00008 8.00033C2.00008 4.68666 4.68641 2.00033 8.00008 2.00033C11.3137 2.00033 14.0001 4.68666 14.0001 8.00033C14.0001 11.314 11.3137 14.0003 8.00008 14.0003ZM10.3572 5.64349C10.0969 5.38316 9.67441 5.38316 9.41425 5.64349L8.00008 7.05749L6.58608 5.64366C6.32575 5.38333 5.90341 5.38333 5.64308 5.64366C5.38275 5.90399 5.38275 6.32633 5.64308 6.58633L7.05725 8.00033L5.64308 9.41432C5.38275 9.67466 5.38275 10.097 5.64308 10.357C5.90341 10.6173 6.32575 10.6173 6.58608 10.357L8.00008 8.94316L9.41408 10.357C9.67441 10.6173 10.0967 10.6173 10.3571 10.357C10.6174 10.0967 10.6174 9.67416 10.3571 9.41432L8.94291 8.00033L10.3571 6.58633C10.6174 6.32583 10.6174 5.90366 10.3572 5.64349Z" fill="#005944"/>
<path fill-rule="evenodd" clip-rule="evenodd" d="M8.00008 14.0003C4.68641 14.0003 2.00008 11.314 2.00008 8.00033C2.00008 4.68666 4.68641 2.00033 8.00008 2.00033C11.3137 2.00033 14.0001 4.68666 14.0001 8.00033C14.0001 11.314 11.3137 14.0003 8.00008 14.0003ZM9.41425 5.64349C9.67441 5.38316 10.0969 5.38316 10.3572 5.64349C10.6174 5.90366 10.6174 6.32583 10.3571 6.58633L8.94291 8.00033L10.3571 9.41432C10.6174 9.67416 10.6174 10.0967 10.3571 10.357C10.0967 10.6173 9.67441 10.6173 9.41408 10.357L8.00008 8.94316L6.58608 10.357C6.32575 10.6173 5.90341 10.6173 5.64308 10.357C5.38275 10.097 5.38275 9.67466 5.64308 9.41432L7.05725 8.00033L5.64308 6.58633C5.38275 6.32633 5.38275 5.90399 5.64308 5.64366C5.90341 5.38333 6.32575 5.38333 6.58608 5.64366L8.00008 7.05749L9.41425 5.64349Z" fill="white"/>
</svg>
