<svg width="24" height="24" viewBox="0 0 24 24" fill="none" xmlns="http://www.w3.org/2000/svg">
<circle cx="12" cy="12" r="12" fill="#4DAC97"/>
<path d="M17.3332 9.33268H15.3332V6.66602H5.99984C5.2665 6.66602 4.6665 7.26602 4.6665 7.99935V15.3327H5.99984C5.99984 16.4393 6.89317 17.3327 7.99984 17.3327C9.1065 17.3327 9.99984 16.4393 9.99984 15.3327H13.9998C13.9998 16.4393 14.8932 17.3327 15.9998 17.3327C17.1065 17.3327 17.9998 16.4393 17.9998 15.3327H19.3332V11.9993L17.3332 9.33268ZM7.99984 16.3327C7.4465 16.3327 6.99984 15.886 6.99984 15.3327C6.99984 14.7793 7.4465 14.3327 7.99984 14.3327C8.55317 14.3327 8.99984 14.7793 8.99984 15.3327C8.99984 15.886 8.55317 16.3327 7.99984 16.3327ZM16.9998 10.3327L18.3065 11.9993H15.3332V10.3327H16.9998ZM15.9998 16.3327C15.4465 16.3327 14.9998 15.886 14.9998 15.3327C14.9998 14.7793 15.4465 14.3327 15.9998 14.3327C16.5532 14.3327 16.9998 14.7793 16.9998 15.3327C16.9998 15.886 16.5532 16.3327 15.9998 16.3327Z" fill="white"/>
</svg>
