<svg width="24" height="24" viewBox="0 0 24 24" fill="none" xmlns="http://www.w3.org/2000/svg">
<circle cx="12" cy="12" r="12" fill="#4DAC97"/>
<path d="M18 15.3C17 13.4 16 13.7 14.9 13.6C15 13.9 15 14.2 15 14.6C16.6 15 17 16.9 17 18V19H15V18H16C16 18 16 15.5 14.5 15.5C13 15.5 13 17.9 13 18H14V19H12V18C12 16.9 12.4 14.9 14 14.6C14 14 13.9 13.5 13.8 13.3C13.6 13.2 13.4 13 13.4 12.7C13.4 12.1 14.2 12.3 14.8 11.2C14.8 11.2 15.7 8.9 15.4 6.9H14.4C14.4 6.7 14.5 6.6 14.5 6.4C14.5 6.2 14.5 6.1 14.4 5.9H15.2C14.9 4.9 13.9 4 12 4C10.1 4 9.09998 4.9 8.69998 6H9.49998C9.49998 6.2 9.39998 6.3 9.39998 6.5C9.39998 6.7 9.39998 6.8 9.49998 7H8.49998C8.29998 9 9.09998 11.3 9.09998 11.3C9.69998 12.3 10.5 12.1 10.5 12.8C10.5 13.3 9.99998 13.5 9.39998 13.6C9.19998 13.8 8.99998 14.2 8.99998 15C8.99998 15.4 8.99998 15.8 8.99998 16.2C9.59998 16.4 9.99998 17 9.99998 17.6C9.99998 18.3 9.29998 19 8.49998 19C7.69998 19 6.99998 18.3 6.99998 17.5C6.99998 16.8 7.39998 16.3 7.99998 16.1C7.99998 15.8 7.99998 15.4 7.99998 14.9C7.99998 14.4 8.09998 14 8.19998 13.6C7.49998 13.7 6.69998 14 5.99998 15.3C5.39998 16.4 5.09998 20 5.09998 20H18.8C18.9 20 18.6 16.4 18 15.3ZM10.5 6.5C10.5 5.7 11.2 5 12 5C12.8 5 13.5 5.7 13.5 6.5C13.5 7.3 12.8 8 12 8C11.2 8 10.5 7.3 10.5 6.5Z" fill="white"/>
<path d="M9 17.5C9 17.776 8.776 18 8.5 18C8.224 18 8 17.776 8 17.5C8 17.224 8.224 17 8.5 17C8.776 17 9 17.224 9 17.5Z" fill="white"/>
</svg>
