<svg width="16" height="16" viewBox="0 0 16 16" fill="none" xmlns="http://www.w3.org/2000/svg">
<path d="M15.4175 2.26219L14.0525 0.899063C13.9116 0.758125 13.7263 0.6875 13.5413 0.6875C13.3563 0.6875 13.1713 0.757812 13.0304 0.89875L11.9385 1.9875L14.3257 4.37063L15.4175 3.28219C15.6997 3.00031 15.6997 2.54313 15.4175 2.26219Z" fill="#B3B3B3"/>
<path d="M4.85059 9.06242L7.23809 11.4459L13.8146 4.88148L11.4271 2.49805L4.85059 9.06242Z" fill="#B3B3B3"/>
<path d="M4.33537 9.57227L3.82568 12.4635L6.72287 11.9554L4.33537 9.57227Z" fill="#B3B3B3"/>
<path d="M10.9353 13.7519H1.93342V4.75H8.28623L9.85186 3.1875H1.38123C0.825293 3.1875 0.370605 3.64219 0.370605 4.19812V14.3041C0.370605 14.86 0.825293 15.3147 1.38123 15.3147H11.4872C12.0431 15.3147 12.4978 14.86 12.4978 14.3041V7.07875L10.9353 8.63844V13.7519Z" fill="#B3B3B3"/>
</svg>
