<svg width="34" height="34" viewBox="0 0 34 34" fill="none" xmlns="http://www.w3.org/2000/svg">
<path d="M29.1645 9.70913L29.2187 10.625C29.2272 11.4931 29.2187 11.4145 29.2187 12.2188C29.2187 20.6912 22.5419 26.5626 13.2812 26.5626C12.0625 26.5626 10.0937 26.5626 10.0937 26.5626C12.6225 29.0361 15.5645 30.5469 19.6562 30.5469C20.5264 30.5469 21.3753 30.4683 22.2009 30.3333L28.1562 34V27.9735C31.3851 25.7614 33.4687 22.3274 33.4687 18.4598C33.4687 15.0131 31.8112 11.9117 29.1645 9.70913ZM10.7695 24.158C11.5961 24.2919 13.4735 24.4375 14.3437 24.4375C21.9725 24.4375 27.0938 18.7605 27.0938 12.0859C27.0938 5.41127 20.6943 0 14.3437 0C6.70439 0 0.53125 5.41133 0.53125 12.0859C0.53125 15.9523 2.00493 19.2355 4.78126 21.5996V27.625L10.7695 24.158ZM20.1875 10.625C21.0673 10.625 21.7813 11.339 21.7813 12.2187C21.7813 13.0995 21.0672 13.8125 20.1875 13.8125C19.3078 13.8125 18.5938 13.0995 18.5938 12.2187C18.5938 11.339 19.3078 10.625 20.1875 10.625ZM13.8125 10.625C14.6923 10.625 15.4063 11.339 15.4063 12.2187C15.4063 13.0995 14.6923 13.8125 13.8125 13.8125C12.9328 13.8125 12.2188 13.0995 12.2188 12.2187C12.2187 11.339 12.9328 10.625 13.8125 10.625ZM7.43752 10.625C8.31725 10.625 9.03128 11.339 9.03128 12.2187C9.03128 13.0995 8.31725 13.8125 7.43752 13.8125C6.55773 13.8125 5.84377 13.0995 5.84377 12.2187C5.84377 11.339 6.55773 10.625 7.43752 10.625Z" fill="#005944"/>
</svg>
