<svg width="30" height="30" viewBox="0 0 30 30" fill="none" xmlns="http://www.w3.org/2000/svg">
<g clip-path="url(#clip0_271_24797)">
<path d="M30 15C30 6.71588 23.2841 0 15 0C6.71588 0 0 6.71588 0 15C0 23.2841 6.71588 30 15 30C23.2841 30 30 23.2841 30 15ZM1.36363 15C1.36363 7.46863 7.46863 1.36363 15 1.36363C22.5314 1.36363 28.6364 7.46863 28.6364 15C28.6364 22.5314 22.5314 28.6364 15 28.6364C7.46863 28.6364 1.36363 22.5314 1.36363 15Z" fill="#005944"/>
<path d="M1.36363 15C1.36363 7.46863 7.46863 1.36363 15 1.36363C22.5314 1.36363 28.6364 7.46863 28.6364 15C28.6364 22.5314 22.5314 28.6364 15 28.6364C7.46863 28.6364 1.36363 22.5314 1.36363 15Z" fill="#005944"/>
<path d="M20.7859 21.75L21.75 20.7859L15.9641 15L21.75 9.21407L20.7859 8.25L15 14.0359L9.21407 8.25L8.25 9.21407L14.0359 15L8.25 20.7859L9.21407 21.75L15 15.9641L20.7859 21.75Z" fill="white"/>
</g>
<defs>
<clipPath id="clip0_271_24797">
<rect width="30" height="30" fill="white"/>
</clipPath>
</defs>
</svg>
