<svg width="35" height="35" viewBox="0 0 35 35" fill="none" xmlns="http://www.w3.org/2000/svg">
<g clip-path="url(#clip0_233_11100)">
<path d="M7.97415 10.7129H10.7694C10.4469 12.2337 10.3228 13.8125 10.3228 15.3361C10.3228 15.789 10.6902 16.1564 11.1431 16.1564C11.596 16.1564 11.9634 15.789 11.9634 15.3361C11.9634 13.8183 12.0915 12.2247 12.4452 10.7129H21.9973C22.351 12.2247 22.479 13.8183 22.479 15.3361C22.479 15.789 22.8464 16.1564 23.2993 16.1564C23.7522 16.1564 24.1196 15.789 24.1196 15.3361C24.1196 13.8125 23.9955 12.2337 23.673 10.7129H26.5902C26.8109 10.7129 26.9909 10.8872 27 11.1057L28.5166 29.59L28.517 29.59C28.5355 29.8158 28.3675 30.0138 28.1418 30.0323C28.1303 30.0333 28.1189 30.0337 28.1076 30.0337H6.45313C6.22661 30.0337 6.04297 29.8501 6.04297 29.6236C6.04297 29.6063 6.04404 29.5893 6.04612 29.5726L7.56255 11.091L7.97111 11.1231L7.56233 11.0895C7.57999 10.874 7.76133 10.7111 7.97416 10.7129L7.97415 10.7129Z" fill="#005944"/>
<path d="M10.7329 15.3357C10.7329 15.5622 10.9166 15.7458 11.1431 15.7458C11.3696 15.7458 11.5532 15.5622 11.5532 15.3357C11.5532 10.1314 13.0556 6.82343 14.9786 5.39537C15.6895 4.86749 16.457 4.60354 17.2212 4.60354C17.9854 4.60354 18.7529 4.86749 19.4637 5.39539C21.3867 6.82341 22.8891 10.1314 22.8891 15.3356C22.8891 15.5622 23.0728 15.7458 23.2993 15.7458C23.5258 15.7458 23.7094 15.5622 23.7094 15.3356C23.7094 9.84328 22.0609 6.30543 19.9508 4.73847C19.0932 4.10164 18.1588 3.7832 17.2212 3.7832C16.2835 3.7832 15.3491 4.10162 14.4916 4.73845C12.3815 6.30545 10.7329 9.84333 10.7329 15.3356V15.3357Z" fill="#005944"/>
<g clip-path="url(#clip1_233_11100)">
<path d="M33 26C33 22.6864 30.3136 20 27 20C23.6864 20 21 22.6864 21 26C21 29.3136 23.6864 32 27 32C30.3136 32 33 29.3136 33 26ZM21.5455 26C21.5455 22.9875 23.9875 20.5455 27 20.5455C30.0125 20.5455 32.4545 22.9875 32.4545 26C32.4545 29.0125 30.0125 31.4545 27 31.4545C23.9875 31.4545 21.5455 29.0125 21.5455 26Z" fill="white"/>
<path d="M21.5455 26C21.5455 22.9875 23.9875 20.5455 27 20.5455C30.0125 20.5455 32.4545 22.9875 32.4545 26C32.4545 29.0125 30.0125 31.4545 27 31.4545C23.9875 31.4545 21.5455 29.0125 21.5455 26Z" fill="white"/>
<path d="M29.3144 28.7008L29.7 28.3151L27.3857 26.0008L29.7 23.6864L29.3144 23.3008L27 25.6152L24.6857 23.3008L24.3 23.6864L26.6144 26.0008L24.3 28.3151L24.6857 28.7008L27 26.3864L29.3144 28.7008Z" fill="black"/>
</g>
</g>
<defs>
<clipPath id="clip0_233_11100">
<rect width="35" height="35" fill="white"/>
</clipPath>
<clipPath id="clip1_233_11100">
<rect width="12" height="12" fill="white" transform="translate(21 20)"/>
</clipPath>
</defs>
</svg>
