<svg width="32" height="33" viewBox="0 0 32 33" fill="none" xmlns="http://www.w3.org/2000/svg">
<path fill-rule="evenodd" clip-rule="evenodd" d="M0.370417 3.0933C0.0661606 3.24348 0 3.46671 0 4.34348C0 5.65207 0.0618241 5.71206 1.45424 5.75463L2.41583 5.78407L4.53748 12.7605L6.65913 19.737L5.75509 20.7938C5.2472 21.3875 4.77651 21.9983 4.68099 22.1877C4.19566 23.1498 4.23451 24.0975 4.79497 24.9652C5.23729 25.6501 5.88519 26.0479 6.73912 26.1592C7.09061 26.205 10.1176 26.2192 17.0236 26.2073C26.261 26.1914 26.8185 26.1846 26.9621 26.087C27.2124 25.9168 27.2495 25.7516 27.2495 24.8076C27.2495 23.8714 27.212 23.7238 26.9335 23.5639C26.8388 23.5096 24.508 23.4862 16.9448 23.4637L7.07971 23.4344L8.09023 22.2616C8.646 21.6166 9.15448 21.0162 9.22017 20.9276L9.3396 20.7663H15.8877C20.2608 20.7663 22.587 20.7453 22.8913 20.7029C23.8232 20.5732 24.5758 20.0384 25.0101 19.1972C25.6136 18.0284 29.8408 8.93638 29.9172 8.64272C30.212 7.5101 29.7015 6.38869 28.6753 5.91477L28.3922 5.78407L16.8234 5.75475L5.25458 5.72543L5.17998 5.49087C5.13902 5.36187 4.99562 4.90008 4.86143 4.46469C4.63523 3.73106 4.59743 3.65365 4.34468 3.40807C3.94602 3.02071 3.82237 2.99854 2.07354 3.00006C0.816313 3.00118 0.524831 3.01713 0.370417 3.0933ZM7.62447 27.6319C7.16181 27.7228 6.63645 28.0136 6.2668 28.3835C5.19774 29.4533 5.205 31.1349 6.28332 32.2139C7.75761 33.6892 10.2973 32.9849 10.8047 30.9602C11.2923 29.0148 9.60002 27.2436 7.62447 27.6319ZM23.9678 27.6328C23.5479 27.7149 22.9877 28.024 22.6543 28.3576C22.1822 28.8301 21.9431 29.3078 21.8607 29.9433C21.6902 31.2592 22.5476 32.5569 23.8213 32.9107C24.1994 33.0158 24.9128 33.0149 25.2864 32.9091C27.2457 32.3538 27.9175 29.8542 26.4959 28.409C25.8278 27.7299 24.9112 27.4485 23.9678 27.6328Z" fill="#005944"/>
<g clip-path="url(#clip0_230_10977)">
<path d="M32 6C32 2.68635 29.3136 0 26 0C22.6864 0 20 2.68635 20 6C20 9.31363 22.6864 12 26 12C29.3136 12 32 9.31363 32 6ZM20.5455 6C20.5455 2.98745 22.9875 0.545451 26 0.545451C29.0125 0.545451 31.4545 2.98745 31.4545 6C31.4545 9.01255 29.0125 11.4545 26 11.4545C22.9875 11.4545 20.5455 9.01255 20.5455 6Z" fill="white"/>
<path d="M20.5455 6C20.5455 2.98745 22.9875 0.545451 26 0.545451C29.0125 0.545451 31.4545 2.98745 31.4545 6C31.4545 9.01255 29.0125 11.4545 26 11.4545C22.9875 11.4545 20.5455 9.01255 20.5455 6Z" fill="white"/>
<path d="M28.3142 8.70078L28.6998 8.31514L26.3854 6.00078L28.6998 3.68641L28.3142 3.30078L25.9998 5.61515L23.6854 3.30078L23.2998 3.68641L25.6142 6.00078L23.2998 8.31514L23.6854 8.70078L25.9998 6.38641L28.3142 8.70078Z" fill="black"/>
</g>
<defs>
<clipPath id="clip0_230_10977">
<rect width="12" height="12" fill="white" transform="translate(20)"/>
</clipPath>
</defs>
</svg>
