<svg width="12" height="14" viewBox="0 0 12 14" fill="none" xmlns="http://www.w3.org/2000/svg">
<path fill-rule="evenodd" clip-rule="evenodd" d="M2.37803 1.75C2.68691 0.876105 3.52034 0.25 4.5 0.25C5.47966 0.25 6.31309 0.876105 6.62197 1.75H11.25C11.6642 1.75 12 2.08579 12 2.5C12 2.91421 11.6642 3.25 11.25 3.25H6.62197C6.31309 4.12389 5.47966 4.75 4.5 4.75C3.52034 4.75 2.68691 4.12389 2.37803 3.25H0.75C0.335786 3.25 0 2.91421 0 2.5C0 2.08579 0.335786 1.75 0.75 1.75H2.37803ZM8.25 4.75C9.22966 4.75 10.0631 5.37611 10.372 6.25H11.25C11.6642 6.25 12 6.58579 12 7C12 7.41421 11.6642 7.75 11.25 7.75H10.372C10.0631 8.62389 9.22966 9.25 8.25 9.25C7.27034 9.25 6.43691 8.62389 6.12803 7.75H0.75C0.335786 7.75 0 7.41421 0 7C0 6.58579 0.335786 6.25 0.75 6.25H6.12803C6.43691 5.37611 7.27034 4.75 8.25 4.75ZM2.37803 10.75C2.68691 9.87611 3.52034 9.25 4.5 9.25C5.47966 9.25 6.31309 9.87611 6.62197 10.75H11.25C11.6642 10.75 12 11.0858 12 11.5C12 11.9142 11.6642 12.25 11.25 12.25H6.62197C6.31309 13.1239 5.47966 13.75 4.5 13.75C3.52034 13.75 2.68691 13.1239 2.37803 12.25H0.75C0.335786 12.25 0 11.9142 0 11.5C0 11.0858 0.335786 10.75 0.75 10.75H2.37803Z" fill="#005944"/>
</svg>
