<svg width="24" height="24" viewBox="0 0 24 24" fill="none" xmlns="http://www.w3.org/2000/svg">
<circle cx="12" cy="12" r="12" fill="#4DAC97"/>
<path fill-rule="evenodd" clip-rule="evenodd" d="M7.71637 7.89176C8.52117 6.28557 10.0499 5.21087 11.7892 5.02855C13.3423 4.86571 14.8538 5.40459 15.9588 6.51506C16.549 7.10827 16.9588 7.7805 17.2201 8.58424C17.6275 9.83716 17.5263 11.2278 16.9404 12.4268C16.8562 12.5989 15.8653 14.1832 14.7382 15.9474C13.2267 18.3134 12.6617 19.1736 12.5848 19.2256C12.4432 19.3215 12.2248 19.3214 12.0829 19.2253C12.0052 19.1727 11.4476 18.3221 9.92188 15.9287C8.79093 14.1546 7.80422 12.5776 7.72917 12.4242C7.22577 11.3957 7.07901 10.2343 7.30829 9.09382C7.3716 8.77899 7.58123 8.16143 7.71637 7.89176ZM14.6101 9.62585C14.3989 8.78493 13.7464 8.11605 12.9102 7.8834C12.7525 7.83952 12.1527 7.8015 12.0383 7.82813C12.004 7.83608 11.8996 7.85821 11.8062 7.8773C11.1291 8.01547 10.47 8.57845 10.1805 9.26595C10.0527 9.5692 10.0149 9.773 10.0149 10.1579C10.0149 10.5428 10.0527 10.7465 10.1805 11.0498C10.4689 11.7347 11.0829 12.2621 11.8048 12.4453C12.0271 12.5017 12.6412 12.5017 12.8635 12.4453C13.5854 12.2621 14.1993 11.7347 14.4878 11.0498C14.6155 10.7465 14.6534 10.5428 14.6534 10.1579C14.6534 9.95433 14.6346 9.72321 14.6101 9.62585Z" fill="white"/>
</svg>
