<svg width="22" height="22" viewBox="0 0 22 22" fill="none" xmlns="http://www.w3.org/2000/svg">
<circle cx="11" cy="11" r="11" fill="#4DAC97" fill-opacity="0.25"/>
<path fill-rule="evenodd" clip-rule="evenodd" d="M7.07309 7.23281C7.81082 5.76047 9.21212 4.77533 10.8065 4.6082C12.2302 4.45894 13.6158 4.95291 14.6286 5.97084C15.1697 6.51461 15.5453 7.13082 15.7849 7.86758C16.1583 9.01609 16.0655 10.2908 15.5284 11.3899C15.4513 11.5477 14.5429 13 13.5098 14.6171C12.1243 16.786 11.6063 17.5745 11.5358 17.6222C11.406 17.7101 11.2058 17.71 11.0757 17.6219C11.0045 17.5736 10.4934 16.794 9.0948 14.6C8.0581 12.9737 7.15361 11.5281 7.08482 11.3876C6.62337 10.4447 6.48884 9.38014 6.69901 8.3347C6.75704 8.0461 6.94921 7.48001 7.07309 7.23281ZM13.3923 8.82239C13.1987 8.05155 12.6006 7.43841 11.8341 7.22515C11.6896 7.18493 11.1397 7.15007 11.0349 7.17449C11.0035 7.18177 10.9077 7.20205 10.8221 7.21955C10.2014 7.34621 9.59727 7.86227 9.33184 8.49248C9.21475 8.77047 9.18007 8.95728 9.18007 9.31008C9.18007 9.66289 9.21475 9.8497 9.33184 10.1277C9.59627 10.7555 10.159 11.239 10.8208 11.4069C11.0246 11.4586 11.5875 11.4586 11.7913 11.4069C12.453 11.239 13.0158 10.7555 13.2802 10.1277C13.3973 9.8497 13.432 9.66289 13.432 9.31008C13.432 9.1235 13.4148 8.91164 13.3923 8.82239Z" fill="#4DAC97"/>
</svg>
