<svg width="19" height="26" viewBox="0 0 19 26" fill="none" xmlns="http://www.w3.org/2000/svg">
<path fill-rule="evenodd" clip-rule="evenodd" d="M1.50362 5.06057C2.91202 2.24974 5.58723 0.369029 8.63105 0.0499542C11.349 -0.235001 13.9942 0.70804 15.9278 2.65135C16.9607 3.68947 17.6779 4.86587 18.1352 6.27241C18.8481 8.46503 18.671 10.8986 17.6456 12.9969C17.4984 13.2981 15.7642 16.0706 13.7919 19.1579C11.1468 23.2985 10.158 24.8037 10.0234 24.8948C9.77558 25.0627 9.39342 25.0624 9.14503 24.8942C9.00907 24.8022 8.03336 23.3137 5.36326 19.1252C3.3841 16.0205 1.65735 13.2607 1.52602 12.9924C0.645071 11.1924 0.388241 9.16003 0.78948 7.16419C0.900266 6.61323 1.26712 5.5325 1.50362 5.06057ZM13.5676 8.09524C13.198 6.62364 12.0561 5.45309 10.5928 5.04595C10.3169 4.96917 9.26721 4.90262 9.067 4.94923C9.00706 4.96314 8.82423 5.00186 8.66075 5.03527C7.47588 5.27707 6.32252 6.26228 5.81578 7.46541C5.59225 7.99611 5.52604 8.35275 5.52604 9.02628C5.52604 9.69981 5.59225 10.0565 5.81578 10.5872C6.32061 11.7857 7.39496 12.7087 8.65829 13.0292C9.04738 13.128 10.122 13.128 10.5111 13.0292C11.7744 12.7087 12.8488 11.7857 13.3536 10.5872C13.5771 10.0565 13.6433 9.69981 13.6433 9.02628C13.6433 8.67008 13.6105 8.26562 13.5676 8.09524Z" fill="#005944"/>
</svg>
