<svg width="24" height="24" viewBox="0 0 24 24" fill="none" xmlns="http://www.w3.org/2000/svg">
<circle cx="12" cy="12" r="12" fill="#4DAC97"/>
<g clip-path="url(#clip0_311_4658)">
<path d="M16.2934 9.42675L16.3125 9.75001C16.3155 10.0564 16.3125 10.0286 16.3125 10.3125C16.3125 13.3028 13.956 15.375 10.6875 15.375C10.2574 15.375 9.56249 15.375 9.56249 15.375C10.455 16.248 11.4934 16.7813 12.9375 16.7813C13.2446 16.7813 13.5442 16.7535 13.8356 16.7059L15.9375 18V15.873C17.0771 15.0922 17.8125 13.8803 17.8125 12.5152C17.8125 11.2988 17.2275 10.2041 16.2934 9.42675ZM9.80099 14.5264C10.0927 14.5736 10.7554 14.625 11.0625 14.625C13.755 14.625 15.5625 12.6214 15.5625 10.2656C15.5625 7.90986 13.3039 6 11.0625 6C8.36626 6 6.1875 7.90988 6.1875 10.2656C6.1875 11.6302 6.70762 12.789 7.6875 13.6234V15.75L9.80099 14.5264ZM13.125 9.74999C13.4355 9.74999 13.6875 10.002 13.6875 10.3125C13.6875 10.6234 13.4355 10.875 13.125 10.875C12.8145 10.875 12.5625 10.6234 12.5625 10.3125C12.5625 10.002 12.8145 9.74999 13.125 9.74999ZM10.875 9.74999C11.1855 9.74999 11.4375 10.002 11.4375 10.3125C11.4375 10.6234 11.1855 10.875 10.875 10.875C10.5645 10.875 10.3125 10.6234 10.3125 10.3125C10.3125 10.002 10.5645 9.74999 10.875 9.74999ZM8.62501 9.74999C8.9355 9.74999 9.18751 10.002 9.18751 10.3125C9.18751 10.6234 8.9355 10.875 8.62501 10.875C8.31449 10.875 8.06251 10.6234 8.06251 10.3125C8.06251 10.002 8.31449 9.74999 8.62501 9.74999Z" fill="white"/>
</g>
<defs>
<clipPath id="clip0_311_4658">
<rect width="12" height="12" fill="white" transform="translate(6 6)"/>
</clipPath>
</defs>
</svg>
