<svg width="24" height="24" viewBox="0 0 24 24" fill="none" xmlns="http://www.w3.org/2000/svg">
<circle cx="12" cy="12" r="12" fill="#4DAC97"/>
<g clip-path="url(#clip0_311_4769)">
<path d="M7.15478 8.12891H8.58491C8.4199 8.90699 8.35642 9.71473 8.35642 10.4943C8.35642 10.726 8.54439 10.9139 8.7761 10.9139C9.00781 10.9139 9.19578 10.726 9.19578 10.4943C9.19578 9.71772 9.26128 8.90238 9.44224 8.12891H14.3293C14.5103 8.90238 14.5758 9.71772 14.5758 10.4943C14.5758 10.726 14.7638 10.9139 14.9955 10.9139C15.2272 10.9139 15.4151 10.726 15.4151 10.4943C15.4151 9.71473 15.3517 8.90699 15.1867 8.12891H16.6792C16.7921 8.12891 16.8841 8.2181 16.8888 8.32988L17.6647 17.7868L17.6649 17.7868C17.6744 17.9023 17.5884 18.0037 17.4729 18.0131C17.4671 18.0136 17.4613 18.0138 17.4555 18.0138H6.37659C6.2607 18.0138 6.16675 17.9199 6.16675 17.804C6.16675 17.7952 6.1673 17.7865 6.16836 17.7779L6.9442 8.32236L7.15323 8.33876L6.94408 8.3216C6.95312 8.21134 7.0459 8.128 7.15479 8.12892L7.15478 8.12891Z" fill="white"/>
<path d="M8.56616 10.4945C8.56616 10.6104 8.66012 10.7043 8.77601 10.7043C8.8919 10.7043 8.98585 10.6104 8.98585 10.4945C8.98585 7.83188 9.7545 6.13943 10.7384 5.4088C11.102 5.13873 11.4947 5.00368 11.8857 5.00368C12.2767 5.00368 12.6693 5.13873 13.033 5.40881C14.0169 6.13942 14.7855 7.83185 14.7855 10.4945C14.7855 10.6103 14.8795 10.7043 14.9954 10.7043C15.1113 10.7043 15.2052 10.6103 15.2052 10.4945C15.2052 7.68445 14.3618 5.87441 13.2822 5.07272C12.8435 4.7469 12.3654 4.58398 11.8857 4.58398C11.406 4.58398 10.9279 4.74689 10.4892 5.07271C9.4096 5.87442 8.56616 7.68447 8.56616 10.4944V10.4945Z" fill="white"/>
<g clip-path="url(#clip1_311_4769)">
<path d="M16.5576 14.8847C16.4122 14.7364 16.1765 14.7364 16.0311 14.8847L14.7147 16.2273L14.3856 15.8916C14.2402 15.7433 14.0045 15.7433 13.8591 15.8916C13.7136 16.0399 13.7136 16.2804 13.8591 16.4286L14.4514 17.0328C14.5968 17.1812 14.8325 17.1812 14.9779 17.0328L16.5576 15.4218C16.703 15.2735 16.703 15.033 16.5576 14.8847Z" fill="#4DAC97"/>
</g>
</g>
<defs>
<clipPath id="clip0_311_4769">
<rect width="14" height="14" fill="white" transform="translate(5 4)"/>
</clipPath>
<clipPath id="clip1_311_4769">
<rect width="2.91667" height="2.91667" fill="white" transform="translate(13.75 14.5)"/>
</clipPath>
</defs>
</svg>
