<svg width="24" height="24" viewBox="0 0 24 24" fill="none" xmlns="http://www.w3.org/2000/svg">
<circle cx="12" cy="12" r="12" fill="#4DAC97"/>
<path fill-rule="evenodd" clip-rule="evenodd" d="M11.8458 5.06003C11.6149 5.16715 11.4082 5.4491 11.4082 5.65702C11.4082 5.69947 11.3917 5.78174 11.3714 5.83978C11.3072 6.02401 11.2356 6.03562 10.1614 6.03562C9.24745 6.03562 9.20133 6.03853 9.13942 6.10044C9.07891 6.16095 9.0746 6.20847 9.0746 6.81349C9.0746 7.41852 9.07891 7.46603 9.13942 7.52655C9.2033 7.59043 9.24745 7.59137 12.1861 7.59137C15.1248 7.59137 15.1689 7.59043 15.2328 7.52655C15.2933 7.46603 15.2976 7.41852 15.2976 6.81349C15.2976 6.20847 15.2933 6.16095 15.2328 6.10044C15.1709 6.03853 15.1248 6.03562 14.2108 6.03562C13.1366 6.03562 13.065 6.02401 13.0008 5.83978C12.9805 5.78174 12.9637 5.6963 12.9633 5.64995C12.9615 5.43824 12.7385 5.14686 12.5032 5.04872C12.3368 4.97929 12.0076 4.98496 11.8458 5.06003ZM7.43781 6.61578C7.36651 6.64887 7.2615 6.72511 7.20448 6.78523C6.98425 7.01736 7.00026 6.54723 7.00026 12.7772C7.00026 19.0072 6.98425 18.5371 7.20448 18.7692C7.2615 18.8293 7.36651 18.9056 7.43781 18.9387C7.56218 18.9964 7.7558 18.9988 12.179 18.9995C17.2701 19.0003 16.9101 19.0151 17.1409 18.796C17.2011 18.739 17.2773 18.634 17.3104 18.5627C17.3683 18.438 17.3705 18.2185 17.3705 12.7772C17.3705 7.33594 17.3683 7.11648 17.3104 6.99176C17.2773 6.92045 17.2011 6.81544 17.1409 6.75843C16.9533 6.58042 16.8458 6.5542 16.3034 6.5542H15.8162V6.80931V7.06442L16.0494 7.0874C16.4126 7.12319 16.6328 7.26745 16.769 7.55896L16.8372 7.70481V12.761C16.8372 16.9812 16.8297 17.8382 16.7924 17.9441C16.729 18.1237 16.52 18.3377 16.3403 18.407C16.1974 18.4622 15.9646 18.4655 12.1699 18.4655C8.15304 18.4655 8.1508 18.4654 8.00502 18.3973C7.81982 18.3108 7.68975 18.1807 7.60321 17.9955L7.53505 17.8496V12.7772V7.70481L7.60321 7.55896C7.73944 7.26745 7.95961 7.12319 8.32278 7.0874L8.55601 7.06442V6.80931V6.5542L8.06174 6.55491C7.64946 6.5555 7.54594 6.56561 7.43781 6.61578ZM8.10225 7.65619C8.03798 7.72047 8.03743 7.76422 8.03743 12.7772C8.03743 17.7902 8.03798 17.834 8.10225 17.8982C8.16636 17.9624 8.21028 17.9631 12.1861 17.9631C16.1619 17.9631 16.2059 17.9624 16.27 17.8982C16.3342 17.834 16.3348 17.7902 16.3348 12.7772C16.3348 7.76422 16.3342 7.72047 16.27 7.65619C16.2175 7.60375 16.1619 7.59137 15.9791 7.59137C15.7638 7.59137 15.7508 7.59575 15.7057 7.68293C15.6376 7.81472 15.4238 7.99768 15.2776 8.04931C15.0913 8.11511 9.2809 8.11511 9.09466 8.04931C8.94845 7.99768 8.73467 7.81472 8.66654 7.68293C8.62142 7.59575 8.60839 7.59137 8.39311 7.59137C8.21028 7.59137 8.15469 7.60375 8.10225 7.65619ZM13.0274 8.92462C13.1836 8.97907 13.2233 9.1059 13.2233 9.55123V9.925H13.597C14.0424 9.925 14.1692 9.96464 14.2237 10.1208C14.2469 10.1876 14.2604 10.4968 14.2604 10.9622C14.2604 11.4276 14.2469 11.7367 14.2237 11.8035C14.1692 11.9597 14.0424 11.9993 13.597 11.9993H13.2233V12.3731C13.2233 12.8184 13.1836 12.9453 13.0274 12.9997C12.8843 13.0496 11.488 13.0496 11.3448 12.9997C11.1886 12.9453 11.1489 12.8184 11.1489 12.3731V11.9993H10.781C10.336 11.9993 10.2185 11.9651 10.1569 11.8177C10.0989 11.6789 10.092 10.283 10.1486 10.1208C10.203 9.96464 10.3298 9.925 10.7752 9.925H11.1489V9.5571C11.1489 9.11967 11.1838 8.99508 11.3234 8.93431C11.4548 8.87714 12.8682 8.8691 13.0274 8.92462ZM11.6675 9.78019C11.6675 10.3987 11.6222 10.4436 10.9983 10.4436H10.6304V10.9622V11.4808H10.9983C11.6222 11.4808 11.6675 11.5257 11.6675 12.1442V12.5179H12.1861H12.7047V12.1442C12.7047 11.5257 12.75 11.4808 13.374 11.4808H13.7419V10.9622V10.4436H13.374C12.75 10.4436 12.7047 10.3987 12.7047 9.78019V9.40642H12.1861H11.6675V9.78019ZM14.86 13.8609C15.0573 13.9433 15.0573 14.2041 14.86 14.2865C14.6939 14.3559 9.6783 14.3559 9.51225 14.2865C9.31927 14.2059 9.3149 13.945 9.50519 13.8622C9.66248 13.7938 14.6965 13.7925 14.86 13.8609ZM14.86 15.1573C15.0573 15.2398 15.0573 15.5005 14.86 15.583C14.6939 15.6523 9.6783 15.6523 9.51225 15.583C9.31927 15.5023 9.3149 15.2414 9.50519 15.1587C9.66248 15.0903 14.6965 15.089 14.86 15.1573ZM14.86 16.4538C15.0573 16.5362 15.0573 16.797 14.86 16.8794C14.6939 16.9488 9.6783 16.9488 9.51225 16.8794C9.31927 16.7988 9.3149 16.5379 9.50519 16.4552C9.66248 16.3868 14.6965 16.3855 14.86 16.4538Z" fill="white"/>
<path fill-rule="evenodd" clip-rule="evenodd" d="M11.8458 5.06003C11.6149 5.16715 11.4082 5.4491 11.4082 5.65702C11.4082 5.69947 11.3917 5.78174 11.3714 5.83978C11.3072 6.02401 11.2356 6.03562 10.1614 6.03562C9.24745 6.03562 9.20133 6.03853 9.13942 6.10044C9.07891 6.16095 9.0746 6.20847 9.0746 6.81349C9.0746 7.41852 9.07891 7.46603 9.13942 7.52655C9.2033 7.59043 9.24745 7.59137 12.1861 7.59137C15.1248 7.59137 15.1689 7.59043 15.2328 7.52655C15.2933 7.46603 15.2976 7.41852 15.2976 6.81349C15.2976 6.20847 15.2933 6.16095 15.2328 6.10044C15.1709 6.03853 15.1248 6.03562 14.2108 6.03562C13.1366 6.03562 13.065 6.02401 13.0008 5.83978C12.9805 5.78174 12.9637 5.6963 12.9633 5.64995C12.9615 5.43824 12.7385 5.14686 12.5032 5.04872C12.3368 4.97929 12.0076 4.98496 11.8458 5.06003ZM7.43781 6.61578C7.36651 6.64887 7.2615 6.72511 7.20448 6.78523C6.98425 7.01736 7.00026 6.54723 7.00026 12.7772C7.00026 19.0072 6.98425 18.5371 7.20448 18.7692C7.2615 18.8293 7.36651 18.9056 7.43781 18.9387C7.56218 18.9964 7.7558 18.9988 12.179 18.9995C17.2701 19.0003 16.9101 19.0151 17.1409 18.796C17.2011 18.739 17.2773 18.634 17.3104 18.5627C17.3683 18.438 17.3705 18.2185 17.3705 12.7772C17.3705 7.33594 17.3683 7.11648 17.3104 6.99176C17.2773 6.92045 17.2011 6.81544 17.1409 6.75843C16.9533 6.58042 16.8458 6.5542 16.3034 6.5542H15.8162V6.80931V7.06442L16.0494 7.0874C16.4126 7.12319 16.6328 7.26745 16.769 7.55896L16.8372 7.70481V12.761C16.8372 16.9812 16.8297 17.8382 16.7924 17.9441C16.729 18.1237 16.52 18.3377 16.3403 18.407C16.1974 18.4622 15.9646 18.4655 12.1699 18.4655C8.15304 18.4655 8.1508 18.4654 8.00502 18.3973C7.81982 18.3108 7.68975 18.1807 7.60321 17.9955L7.53505 17.8496V12.7772V7.70481L7.60321 7.55896C7.73944 7.26745 7.95961 7.12319 8.32278 7.0874L8.55601 7.06442V6.80931V6.5542L8.06174 6.55491C7.64946 6.5555 7.54594 6.56561 7.43781 6.61578ZM8.10225 7.65619C8.03798 7.72047 8.03743 7.76422 8.03743 12.7772C8.03743 17.7902 8.03798 17.834 8.10225 17.8982C8.16636 17.9624 8.21028 17.9631 12.1861 17.9631C16.1619 17.9631 16.2059 17.9624 16.27 17.8982C16.3342 17.834 16.3348 17.7902 16.3348 12.7772C16.3348 7.76422 16.3342 7.72047 16.27 7.65619C16.2175 7.60375 16.1619 7.59137 15.9791 7.59137C15.7638 7.59137 15.7508 7.59575 15.7057 7.68293C15.6376 7.81472 15.4238 7.99768 15.2776 8.04931C15.0913 8.11511 9.2809 8.11511 9.09466 8.04931C8.94845 7.99768 8.73467 7.81472 8.66654 7.68293C8.62142 7.59575 8.60839 7.59137 8.39311 7.59137C8.21028 7.59137 8.15469 7.60375 8.10225 7.65619ZM13.0274 8.92462C13.1836 8.97907 13.2233 9.1059 13.2233 9.55123V9.925H13.597C14.0424 9.925 14.1692 9.96464 14.2237 10.1208C14.2469 10.1876 14.2604 10.4968 14.2604 10.9622C14.2604 11.4276 14.2469 11.7367 14.2237 11.8035C14.1692 11.9597 14.0424 11.9993 13.597 11.9993H13.2233V12.3731C13.2233 12.8184 13.1836 12.9453 13.0274 12.9997C12.8843 13.0496 11.488 13.0496 11.3448 12.9997C11.1886 12.9453 11.1489 12.8184 11.1489 12.3731V11.9993H10.781C10.336 11.9993 10.2185 11.9651 10.1569 11.8177C10.0989 11.6789 10.092 10.283 10.1486 10.1208C10.203 9.96464 10.3298 9.925 10.7752 9.925H11.1489V9.5571C11.1489 9.11967 11.1838 8.99508 11.3234 8.93431C11.4548 8.87714 12.8682 8.8691 13.0274 8.92462ZM11.6675 9.78019C11.6675 10.3987 11.6222 10.4436 10.9983 10.4436H10.6304V10.9622V11.4808H10.9983C11.6222 11.4808 11.6675 11.5257 11.6675 12.1442V12.5179H12.1861H12.7047V12.1442C12.7047 11.5257 12.75 11.4808 13.374 11.4808H13.7419V10.9622V10.4436H13.374C12.75 10.4436 12.7047 10.3987 12.7047 9.78019V9.40642H12.1861H11.6675V9.78019ZM14.86 13.8609C15.0573 13.9433 15.0573 14.2041 14.86 14.2865C14.6939 14.3559 9.6783 14.3559 9.51225 14.2865C9.31927 14.2059 9.3149 13.945 9.50519 13.8622C9.66248 13.7938 14.6965 13.7925 14.86 13.8609ZM14.86 15.1573C15.0573 15.2398 15.0573 15.5005 14.86 15.583C14.6939 15.6523 9.6783 15.6523 9.51225 15.583C9.31927 15.5023 9.3149 15.2414 9.50519 15.1587C9.66248 15.0903 14.6965 15.089 14.86 15.1573ZM14.86 16.4538C15.0573 16.5362 15.0573 16.797 14.86 16.8794C14.6939 16.9488 9.6783 16.9488 9.51225 16.8794C9.31927 16.7988 9.3149 16.5379 9.50519 16.4552C9.66248 16.3868 14.6965 16.3855 14.86 16.4538Z" fill="white"/>
<path fill-rule="evenodd" clip-rule="evenodd" d="M11.8458 5.06003C11.6149 5.16715 11.4082 5.4491 11.4082 5.65702C11.4082 5.69947 11.3917 5.78174 11.3714 5.83978C11.3072 6.02401 11.2356 6.03562 10.1614 6.03562C9.24745 6.03562 9.20133 6.03853 9.13942 6.10044C9.07891 6.16095 9.0746 6.20847 9.0746 6.81349C9.0746 7.41852 9.07891 7.46603 9.13942 7.52655C9.2033 7.59043 9.24745 7.59137 12.1861 7.59137C15.1248 7.59137 15.1689 7.59043 15.2328 7.52655C15.2933 7.46603 15.2976 7.41852 15.2976 6.81349C15.2976 6.20847 15.2933 6.16095 15.2328 6.10044C15.1709 6.03853 15.1248 6.03562 14.2108 6.03562C13.1366 6.03562 13.065 6.02401 13.0008 5.83978C12.9805 5.78174 12.9637 5.6963 12.9633 5.64995C12.9615 5.43824 12.7385 5.14686 12.5032 5.04872C12.3368 4.97929 12.0076 4.98496 11.8458 5.06003ZM7.43781 6.61578C7.36651 6.64887 7.2615 6.72511 7.20448 6.78523C6.98425 7.01736 7.00026 6.54723 7.00026 12.7772C7.00026 19.0072 6.98425 18.5371 7.20448 18.7692C7.2615 18.8293 7.36651 18.9056 7.43781 18.9387C7.56218 18.9964 7.7558 18.9988 12.179 18.9995C17.2701 19.0003 16.9101 19.0151 17.1409 18.796C17.2011 18.739 17.2773 18.634 17.3104 18.5627C17.3683 18.438 17.3705 18.2185 17.3705 12.7772C17.3705 7.33594 17.3683 7.11648 17.3104 6.99176C17.2773 6.92045 17.2011 6.81544 17.1409 6.75843C16.9533 6.58042 16.8458 6.5542 16.3034 6.5542H15.8162V6.80931V7.06442L16.0494 7.0874C16.4126 7.12319 16.6328 7.26745 16.769 7.55896L16.8372 7.70481V12.761C16.8372 16.9812 16.8297 17.8382 16.7924 17.9441C16.729 18.1237 16.52 18.3377 16.3403 18.407C16.1974 18.4622 15.9646 18.4655 12.1699 18.4655C8.15304 18.4655 8.1508 18.4654 8.00502 18.3973C7.81982 18.3108 7.68975 18.1807 7.60321 17.9955L7.53505 17.8496V12.7772V7.70481L7.60321 7.55896C7.73944 7.26745 7.95961 7.12319 8.32278 7.0874L8.55601 7.06442V6.80931V6.5542L8.06174 6.55491C7.64946 6.5555 7.54594 6.56561 7.43781 6.61578ZM8.10225 7.65619C8.03798 7.72047 8.03743 7.76422 8.03743 12.7772C8.03743 17.7902 8.03798 17.834 8.10225 17.8982C8.16636 17.9624 8.21028 17.9631 12.1861 17.9631C16.1619 17.9631 16.2059 17.9624 16.27 17.8982C16.3342 17.834 16.3348 17.7902 16.3348 12.7772C16.3348 7.76422 16.3342 7.72047 16.27 7.65619C16.2175 7.60375 16.1619 7.59137 15.9791 7.59137C15.7638 7.59137 15.7508 7.59575 15.7057 7.68293C15.6376 7.81472 15.4238 7.99768 15.2776 8.04931C15.0913 8.11511 9.2809 8.11511 9.09466 8.04931C8.94845 7.99768 8.73467 7.81472 8.66654 7.68293C8.62142 7.59575 8.60839 7.59137 8.39311 7.59137C8.21028 7.59137 8.15469 7.60375 8.10225 7.65619ZM13.0274 8.92462C13.1836 8.97907 13.2233 9.1059 13.2233 9.55123V9.925H13.597C14.0424 9.925 14.1692 9.96464 14.2237 10.1208C14.2469 10.1876 14.2604 10.4968 14.2604 10.9622C14.2604 11.4276 14.2469 11.7367 14.2237 11.8035C14.1692 11.9597 14.0424 11.9993 13.597 11.9993H13.2233V12.3731C13.2233 12.8184 13.1836 12.9453 13.0274 12.9997C12.8843 13.0496 11.488 13.0496 11.3448 12.9997C11.1886 12.9453 11.1489 12.8184 11.1489 12.3731V11.9993H10.781C10.336 11.9993 10.2185 11.9651 10.1569 11.8177C10.0989 11.6789 10.092 10.283 10.1486 10.1208C10.203 9.96464 10.3298 9.925 10.7752 9.925H11.1489V9.5571C11.1489 9.11967 11.1838 8.99508 11.3234 8.93431C11.4548 8.87714 12.8682 8.8691 13.0274 8.92462ZM11.6675 9.78019C11.6675 10.3987 11.6222 10.4436 10.9983 10.4436H10.6304V10.9622V11.4808H10.9983C11.6222 11.4808 11.6675 11.5257 11.6675 12.1442V12.5179H12.1861H12.7047V12.1442C12.7047 11.5257 12.75 11.4808 13.374 11.4808H13.7419V10.9622V10.4436H13.374C12.75 10.4436 12.7047 10.3987 12.7047 9.78019V9.40642H12.1861H11.6675V9.78019ZM14.86 13.8609C15.0573 13.9433 15.0573 14.2041 14.86 14.2865C14.6939 14.3559 9.6783 14.3559 9.51225 14.2865C9.31927 14.2059 9.3149 13.945 9.50519 13.8622C9.66248 13.7938 14.6965 13.7925 14.86 13.8609ZM14.86 15.1573C15.0573 15.2398 15.0573 15.5005 14.86 15.583C14.6939 15.6523 9.6783 15.6523 9.51225 15.583C9.31927 15.5023 9.3149 15.2414 9.50519 15.1587C9.66248 15.0903 14.6965 15.089 14.86 15.1573ZM14.86 16.4538C15.0573 16.5362 15.0573 16.797 14.86 16.8794C14.6939 16.9488 9.6783 16.9488 9.51225 16.8794C9.31927 16.7988 9.3149 16.5379 9.50519 16.4552C9.66248 16.3868 14.6965 16.3855 14.86 16.4538Z" fill="white"/>
<path fill-rule="evenodd" clip-rule="evenodd" d="M11.8458 5.06003C11.6149 5.16715 11.4082 5.4491 11.4082 5.65702C11.4082 5.69947 11.3917 5.78174 11.3714 5.83978C11.3072 6.02401 11.2356 6.03562 10.1614 6.03562C9.24745 6.03562 9.20133 6.03853 9.13942 6.10044C9.07891 6.16095 9.0746 6.20847 9.0746 6.81349C9.0746 7.41852 9.07891 7.46603 9.13942 7.52655C9.2033 7.59043 9.24745 7.59137 12.1861 7.59137C15.1248 7.59137 15.1689 7.59043 15.2328 7.52655C15.2933 7.46603 15.2976 7.41852 15.2976 6.81349C15.2976 6.20847 15.2933 6.16095 15.2328 6.10044C15.1709 6.03853 15.1248 6.03562 14.2108 6.03562C13.1366 6.03562 13.065 6.02401 13.0008 5.83978C12.9805 5.78174 12.9637 5.6963 12.9633 5.64995C12.9615 5.43824 12.7385 5.14686 12.5032 5.04872C12.3368 4.97929 12.0076 4.98496 11.8458 5.06003ZM7.43781 6.61578C7.36651 6.64887 7.2615 6.72511 7.20448 6.78523C6.98425 7.01736 7.00026 6.54723 7.00026 12.7772C7.00026 19.0072 6.98425 18.5371 7.20448 18.7692C7.2615 18.8293 7.36651 18.9056 7.43781 18.9387C7.56218 18.9964 7.7558 18.9988 12.179 18.9995C17.2701 19.0003 16.9101 19.0151 17.1409 18.796C17.2011 18.739 17.2773 18.634 17.3104 18.5627C17.3683 18.438 17.3705 18.2185 17.3705 12.7772C17.3705 7.33594 17.3683 7.11648 17.3104 6.99176C17.2773 6.92045 17.2011 6.81544 17.1409 6.75843C16.9533 6.58042 16.8458 6.5542 16.3034 6.5542H15.8162V6.80931V7.06442L16.0494 7.0874C16.4126 7.12319 16.6328 7.26745 16.769 7.55896L16.8372 7.70481V12.761C16.8372 16.9812 16.8297 17.8382 16.7924 17.9441C16.729 18.1237 16.52 18.3377 16.3403 18.407C16.1974 18.4622 15.9646 18.4655 12.1699 18.4655C8.15304 18.4655 8.1508 18.4654 8.00502 18.3973C7.81982 18.3108 7.68975 18.1807 7.60321 17.9955L7.53505 17.8496V12.7772V7.70481L7.60321 7.55896C7.73944 7.26745 7.95961 7.12319 8.32278 7.0874L8.55601 7.06442V6.80931V6.5542L8.06174 6.55491C7.64946 6.5555 7.54594 6.56561 7.43781 6.61578ZM8.10225 7.65619C8.03798 7.72047 8.03743 7.76422 8.03743 12.7772C8.03743 17.7902 8.03798 17.834 8.10225 17.8982C8.16636 17.9624 8.21028 17.9631 12.1861 17.9631C16.1619 17.9631 16.2059 17.9624 16.27 17.8982C16.3342 17.834 16.3348 17.7902 16.3348 12.7772C16.3348 7.76422 16.3342 7.72047 16.27 7.65619C16.2175 7.60375 16.1619 7.59137 15.9791 7.59137C15.7638 7.59137 15.7508 7.59575 15.7057 7.68293C15.6376 7.81472 15.4238 7.99768 15.2776 8.04931C15.0913 8.11511 9.2809 8.11511 9.09466 8.04931C8.94845 7.99768 8.73467 7.81472 8.66654 7.68293C8.62142 7.59575 8.60839 7.59137 8.39311 7.59137C8.21028 7.59137 8.15469 7.60375 8.10225 7.65619ZM13.0274 8.92462C13.1836 8.97907 13.2233 9.1059 13.2233 9.55123V9.925H13.597C14.0424 9.925 14.1692 9.96464 14.2237 10.1208C14.2469 10.1876 14.2604 10.4968 14.2604 10.9622C14.2604 11.4276 14.2469 11.7367 14.2237 11.8035C14.1692 11.9597 14.0424 11.9993 13.597 11.9993H13.2233V12.3731C13.2233 12.8184 13.1836 12.9453 13.0274 12.9997C12.8843 13.0496 11.488 13.0496 11.3448 12.9997C11.1886 12.9453 11.1489 12.8184 11.1489 12.3731V11.9993H10.781C10.336 11.9993 10.2185 11.9651 10.1569 11.8177C10.0989 11.6789 10.092 10.283 10.1486 10.1208C10.203 9.96464 10.3298 9.925 10.7752 9.925H11.1489V9.5571C11.1489 9.11967 11.1838 8.99508 11.3234 8.93431C11.4548 8.87714 12.8682 8.8691 13.0274 8.92462ZM11.6675 9.78019C11.6675 10.3987 11.6222 10.4436 10.9983 10.4436H10.6304V10.9622V11.4808H10.9983C11.6222 11.4808 11.6675 11.5257 11.6675 12.1442V12.5179H12.1861H12.7047V12.1442C12.7047 11.5257 12.75 11.4808 13.374 11.4808H13.7419V10.9622V10.4436H13.374C12.75 10.4436 12.7047 10.3987 12.7047 9.78019V9.40642H12.1861H11.6675V9.78019ZM14.86 13.8609C15.0573 13.9433 15.0573 14.2041 14.86 14.2865C14.6939 14.3559 9.6783 14.3559 9.51225 14.2865C9.31927 14.2059 9.3149 13.945 9.50519 13.8622C9.66248 13.7938 14.6965 13.7925 14.86 13.8609ZM14.86 15.1573C15.0573 15.2398 15.0573 15.5005 14.86 15.583C14.6939 15.6523 9.6783 15.6523 9.51225 15.583C9.31927 15.5023 9.3149 15.2414 9.50519 15.1587C9.66248 15.0903 14.6965 15.089 14.86 15.1573ZM14.86 16.4538C15.0573 16.5362 15.0573 16.797 14.86 16.8794C14.6939 16.9488 9.6783 16.9488 9.51225 16.8794C9.31927 16.7988 9.3149 16.5379 9.50519 16.4552C9.66248 16.3868 14.6965 16.3855 14.86 16.4538Z" fill="white"/>
<path fill-rule="evenodd" clip-rule="evenodd" d="M11.8458 5.06003C11.6149 5.16715 11.4082 5.4491 11.4082 5.65702C11.4082 5.69947 11.3917 5.78174 11.3714 5.83978C11.3072 6.02401 11.2356 6.03562 10.1614 6.03562C9.24745 6.03562 9.20133 6.03853 9.13942 6.10044C9.07891 6.16095 9.0746 6.20847 9.0746 6.81349C9.0746 7.41852 9.07891 7.46603 9.13942 7.52655C9.2033 7.59043 9.24745 7.59137 12.1861 7.59137C15.1248 7.59137 15.1689 7.59043 15.2328 7.52655C15.2933 7.46603 15.2976 7.41852 15.2976 6.81349C15.2976 6.20847 15.2933 6.16095 15.2328 6.10044C15.1709 6.03853 15.1248 6.03562 14.2108 6.03562C13.1366 6.03562 13.065 6.02401 13.0008 5.83978C12.9805 5.78174 12.9637 5.6963 12.9633 5.64995C12.9615 5.43824 12.7385 5.14686 12.5032 5.04872C12.3368 4.97929 12.0076 4.98496 11.8458 5.06003ZM7.43781 6.61578C7.36651 6.64887 7.2615 6.72511 7.20448 6.78523C6.98425 7.01736 7.00026 6.54723 7.00026 12.7772C7.00026 19.0072 6.98425 18.5371 7.20448 18.7692C7.2615 18.8293 7.36651 18.9056 7.43781 18.9387C7.56218 18.9964 7.7558 18.9988 12.179 18.9995C17.2701 19.0003 16.9101 19.0151 17.1409 18.796C17.2011 18.739 17.2773 18.634 17.3104 18.5627C17.3683 18.438 17.3705 18.2185 17.3705 12.7772C17.3705 7.33594 17.3683 7.11648 17.3104 6.99176C17.2773 6.92045 17.2011 6.81544 17.1409 6.75843C16.9533 6.58042 16.8458 6.5542 16.3034 6.5542H15.8162V6.80931V7.06442L16.0494 7.0874C16.4126 7.12319 16.6328 7.26745 16.769 7.55896L16.8372 7.70481V12.761C16.8372 16.9812 16.8297 17.8382 16.7924 17.9441C16.729 18.1237 16.52 18.3377 16.3403 18.407C16.1974 18.4622 15.9646 18.4655 12.1699 18.4655C8.15304 18.4655 8.1508 18.4654 8.00502 18.3973C7.81982 18.3108 7.68975 18.1807 7.60321 17.9955L7.53505 17.8496V12.7772V7.70481L7.60321 7.55896C7.73944 7.26745 7.95961 7.12319 8.32278 7.0874L8.55601 7.06442V6.80931V6.5542L8.06174 6.55491C7.64946 6.5555 7.54594 6.56561 7.43781 6.61578ZM8.10225 7.65619C8.03798 7.72047 8.03743 7.76422 8.03743 12.7772C8.03743 17.7902 8.03798 17.834 8.10225 17.8982C8.16636 17.9624 8.21028 17.9631 12.1861 17.9631C16.1619 17.9631 16.2059 17.9624 16.27 17.8982C16.3342 17.834 16.3348 17.7902 16.3348 12.7772C16.3348 7.76422 16.3342 7.72047 16.27 7.65619C16.2175 7.60375 16.1619 7.59137 15.9791 7.59137C15.7638 7.59137 15.7508 7.59575 15.7057 7.68293C15.6376 7.81472 15.4238 7.99768 15.2776 8.04931C15.0913 8.11511 9.2809 8.11511 9.09466 8.04931C8.94845 7.99768 8.73467 7.81472 8.66654 7.68293C8.62142 7.59575 8.60839 7.59137 8.39311 7.59137C8.21028 7.59137 8.15469 7.60375 8.10225 7.65619ZM13.0274 8.92462C13.1836 8.97907 13.2233 9.1059 13.2233 9.55123V9.925H13.597C14.0424 9.925 14.1692 9.96464 14.2237 10.1208C14.2469 10.1876 14.2604 10.4968 14.2604 10.9622C14.2604 11.4276 14.2469 11.7367 14.2237 11.8035C14.1692 11.9597 14.0424 11.9993 13.597 11.9993H13.2233V12.3731C13.2233 12.8184 13.1836 12.9453 13.0274 12.9997C12.8843 13.0496 11.488 13.0496 11.3448 12.9997C11.1886 12.9453 11.1489 12.8184 11.1489 12.3731V11.9993H10.781C10.336 11.9993 10.2185 11.9651 10.1569 11.8177C10.0989 11.6789 10.092 10.283 10.1486 10.1208C10.203 9.96464 10.3298 9.925 10.7752 9.925H11.1489V9.5571C11.1489 9.11967 11.1838 8.99508 11.3234 8.93431C11.4548 8.87714 12.8682 8.8691 13.0274 8.92462ZM11.6675 9.78019C11.6675 10.3987 11.6222 10.4436 10.9983 10.4436H10.6304V10.9622V11.4808H10.9983C11.6222 11.4808 11.6675 11.5257 11.6675 12.1442V12.5179H12.1861H12.7047V12.1442C12.7047 11.5257 12.75 11.4808 13.374 11.4808H13.7419V10.9622V10.4436H13.374C12.75 10.4436 12.7047 10.3987 12.7047 9.78019V9.40642H12.1861H11.6675V9.78019ZM14.86 13.8609C15.0573 13.9433 15.0573 14.2041 14.86 14.2865C14.6939 14.3559 9.6783 14.3559 9.51225 14.2865C9.31927 14.2059 9.3149 13.945 9.50519 13.8622C9.66248 13.7938 14.6965 13.7925 14.86 13.8609ZM14.86 15.1573C15.0573 15.2398 15.0573 15.5005 14.86 15.583C14.6939 15.6523 9.6783 15.6523 9.51225 15.583C9.31927 15.5023 9.3149 15.2414 9.50519 15.1587C9.66248 15.0903 14.6965 15.089 14.86 15.1573ZM14.86 16.4538C15.0573 16.5362 15.0573 16.797 14.86 16.8794C14.6939 16.9488 9.6783 16.9488 9.51225 16.8794C9.31927 16.7988 9.3149 16.5379 9.50519 16.4552C9.66248 16.3868 14.6965 16.3855 14.86 16.4538Z" fill="white"/>
<path fill-rule="evenodd" clip-rule="evenodd" d="M11.8458 5.06003C11.6149 5.16715 11.4082 5.4491 11.4082 5.65702C11.4082 5.69947 11.3917 5.78174 11.3714 5.83978C11.3072 6.02401 11.2356 6.03562 10.1614 6.03562C9.24745 6.03562 9.20133 6.03853 9.13942 6.10044C9.07891 6.16095 9.0746 6.20847 9.0746 6.81349C9.0746 7.41852 9.07891 7.46603 9.13942 7.52655C9.2033 7.59043 9.24745 7.59137 12.1861 7.59137C15.1248 7.59137 15.1689 7.59043 15.2328 7.52655C15.2933 7.46603 15.2976 7.41852 15.2976 6.81349C15.2976 6.20847 15.2933 6.16095 15.2328 6.10044C15.1709 6.03853 15.1248 6.03562 14.2108 6.03562C13.1366 6.03562 13.065 6.02401 13.0008 5.83978C12.9805 5.78174 12.9637 5.6963 12.9633 5.64995C12.9615 5.43824 12.7385 5.14686 12.5032 5.04872C12.3368 4.97929 12.0076 4.98496 11.8458 5.06003ZM7.43781 6.61578C7.36651 6.64887 7.2615 6.72511 7.20448 6.78523C6.98425 7.01736 7.00026 6.54723 7.00026 12.7772C7.00026 19.0072 6.98425 18.5371 7.20448 18.7692C7.2615 18.8293 7.36651 18.9056 7.43781 18.9387C7.56218 18.9964 7.7558 18.9988 12.179 18.9995C17.2701 19.0003 16.9101 19.0151 17.1409 18.796C17.2011 18.739 17.2773 18.634 17.3104 18.5627C17.3683 18.438 17.3705 18.2185 17.3705 12.7772C17.3705 7.33594 17.3683 7.11648 17.3104 6.99176C17.2773 6.92045 17.2011 6.81544 17.1409 6.75843C16.9533 6.58042 16.8458 6.5542 16.3034 6.5542H15.8162V6.80931V7.06442L16.0494 7.0874C16.4126 7.12319 16.6328 7.26745 16.769 7.55896L16.8372 7.70481V12.761C16.8372 16.9812 16.8297 17.8382 16.7924 17.9441C16.729 18.1237 16.52 18.3377 16.3403 18.407C16.1974 18.4622 15.9646 18.4655 12.1699 18.4655C8.15304 18.4655 8.1508 18.4654 8.00502 18.3973C7.81982 18.3108 7.68975 18.1807 7.60321 17.9955L7.53505 17.8496V12.7772V7.70481L7.60321 7.55896C7.73944 7.26745 7.95961 7.12319 8.32278 7.0874L8.55601 7.06442V6.80931V6.5542L8.06174 6.55491C7.64946 6.5555 7.54594 6.56561 7.43781 6.61578ZM8.10225 7.65619C8.03798 7.72047 8.03743 7.76422 8.03743 12.7772C8.03743 17.7902 8.03798 17.834 8.10225 17.8982C8.16636 17.9624 8.21028 17.9631 12.1861 17.9631C16.1619 17.9631 16.2059 17.9624 16.27 17.8982C16.3342 17.834 16.3348 17.7902 16.3348 12.7772C16.3348 7.76422 16.3342 7.72047 16.27 7.65619C16.2175 7.60375 16.1619 7.59137 15.9791 7.59137C15.7638 7.59137 15.7508 7.59575 15.7057 7.68293C15.6376 7.81472 15.4238 7.99768 15.2776 8.04931C15.0913 8.11511 9.2809 8.11511 9.09466 8.04931C8.94845 7.99768 8.73467 7.81472 8.66654 7.68293C8.62142 7.59575 8.60839 7.59137 8.39311 7.59137C8.21028 7.59137 8.15469 7.60375 8.10225 7.65619ZM13.0274 8.92462C13.1836 8.97907 13.2233 9.1059 13.2233 9.55123V9.925H13.597C14.0424 9.925 14.1692 9.96464 14.2237 10.1208C14.2469 10.1876 14.2604 10.4968 14.2604 10.9622C14.2604 11.4276 14.2469 11.7367 14.2237 11.8035C14.1692 11.9597 14.0424 11.9993 13.597 11.9993H13.2233V12.3731C13.2233 12.8184 13.1836 12.9453 13.0274 12.9997C12.8843 13.0496 11.488 13.0496 11.3448 12.9997C11.1886 12.9453 11.1489 12.8184 11.1489 12.3731V11.9993H10.781C10.336 11.9993 10.2185 11.9651 10.1569 11.8177C10.0989 11.6789 10.092 10.283 10.1486 10.1208C10.203 9.96464 10.3298 9.925 10.7752 9.925H11.1489V9.5571C11.1489 9.11967 11.1838 8.99508 11.3234 8.93431C11.4548 8.87714 12.8682 8.8691 13.0274 8.92462ZM11.6675 9.78019C11.6675 10.3987 11.6222 10.4436 10.9983 10.4436H10.6304V10.9622V11.4808H10.9983C11.6222 11.4808 11.6675 11.5257 11.6675 12.1442V12.5179H12.1861H12.7047V12.1442C12.7047 11.5257 12.75 11.4808 13.374 11.4808H13.7419V10.9622V10.4436H13.374C12.75 10.4436 12.7047 10.3987 12.7047 9.78019V9.40642H12.1861H11.6675V9.78019ZM14.86 13.8609C15.0573 13.9433 15.0573 14.2041 14.86 14.2865C14.6939 14.3559 9.6783 14.3559 9.51225 14.2865C9.31927 14.2059 9.3149 13.945 9.50519 13.8622C9.66248 13.7938 14.6965 13.7925 14.86 13.8609ZM14.86 15.1573C15.0573 15.2398 15.0573 15.5005 14.86 15.583C14.6939 15.6523 9.6783 15.6523 9.51225 15.583C9.31927 15.5023 9.3149 15.2414 9.50519 15.1587C9.66248 15.0903 14.6965 15.089 14.86 15.1573ZM14.86 16.4538C15.0573 16.5362 15.0573 16.797 14.86 16.8794C14.6939 16.9488 9.6783 16.9488 9.51225 16.8794C9.31927 16.7988 9.3149 16.5379 9.50519 16.4552C9.66248 16.3868 14.6965 16.3855 14.86 16.4538Z" fill="white"/>
<path fill-rule="evenodd" clip-rule="evenodd" d="M11.8458 5.06003C11.6149 5.16715 11.4082 5.4491 11.4082 5.65702C11.4082 5.69947 11.3917 5.78174 11.3714 5.83978C11.3072 6.02401 11.2356 6.03562 10.1614 6.03562C9.24745 6.03562 9.20133 6.03853 9.13942 6.10044C9.07891 6.16095 9.0746 6.20847 9.0746 6.81349C9.0746 7.41852 9.07891 7.46603 9.13942 7.52655C9.2033 7.59043 9.24745 7.59137 12.1861 7.59137C15.1248 7.59137 15.1689 7.59043 15.2328 7.52655C15.2933 7.46603 15.2976 7.41852 15.2976 6.81349C15.2976 6.20847 15.2933 6.16095 15.2328 6.10044C15.1709 6.03853 15.1248 6.03562 14.2108 6.03562C13.1366 6.03562 13.065 6.02401 13.0008 5.83978C12.9805 5.78174 12.9637 5.6963 12.9633 5.64995C12.9615 5.43824 12.7385 5.14686 12.5032 5.04872C12.3368 4.97929 12.0076 4.98496 11.8458 5.06003ZM7.43781 6.61578C7.36651 6.64887 7.2615 6.72511 7.20448 6.78523C6.98425 7.01736 7.00026 6.54723 7.00026 12.7772C7.00026 19.0072 6.98425 18.5371 7.20448 18.7692C7.2615 18.8293 7.36651 18.9056 7.43781 18.9387C7.56218 18.9964 7.7558 18.9988 12.179 18.9995C17.2701 19.0003 16.9101 19.0151 17.1409 18.796C17.2011 18.739 17.2773 18.634 17.3104 18.5627C17.3683 18.438 17.3705 18.2185 17.3705 12.7772C17.3705 7.33594 17.3683 7.11648 17.3104 6.99176C17.2773 6.92045 17.2011 6.81544 17.1409 6.75843C16.9533 6.58042 16.8458 6.5542 16.3034 6.5542H15.8162V6.80931V7.06442L16.0494 7.0874C16.4126 7.12319 16.6328 7.26745 16.769 7.55896L16.8372 7.70481V12.761C16.8372 16.9812 16.8297 17.8382 16.7924 17.9441C16.729 18.1237 16.52 18.3377 16.3403 18.407C16.1974 18.4622 15.9646 18.4655 12.1699 18.4655C8.15304 18.4655 8.1508 18.4654 8.00502 18.3973C7.81982 18.3108 7.68975 18.1807 7.60321 17.9955L7.53505 17.8496V12.7772V7.70481L7.60321 7.55896C7.73944 7.26745 7.95961 7.12319 8.32278 7.0874L8.55601 7.06442V6.80931V6.5542L8.06174 6.55491C7.64946 6.5555 7.54594 6.56561 7.43781 6.61578ZM8.10225 7.65619C8.03798 7.72047 8.03743 7.76422 8.03743 12.7772C8.03743 17.7902 8.03798 17.834 8.10225 17.8982C8.16636 17.9624 8.21028 17.9631 12.1861 17.9631C16.1619 17.9631 16.2059 17.9624 16.27 17.8982C16.3342 17.834 16.3348 17.7902 16.3348 12.7772C16.3348 7.76422 16.3342 7.72047 16.27 7.65619C16.2175 7.60375 16.1619 7.59137 15.9791 7.59137C15.7638 7.59137 15.7508 7.59575 15.7057 7.68293C15.6376 7.81472 15.4238 7.99768 15.2776 8.04931C15.0913 8.11511 9.2809 8.11511 9.09466 8.04931C8.94845 7.99768 8.73467 7.81472 8.66654 7.68293C8.62142 7.59575 8.60839 7.59137 8.39311 7.59137C8.21028 7.59137 8.15469 7.60375 8.10225 7.65619ZM13.0274 8.92462C13.1836 8.97907 13.2233 9.1059 13.2233 9.55123V9.925H13.597C14.0424 9.925 14.1692 9.96464 14.2237 10.1208C14.2469 10.1876 14.2604 10.4968 14.2604 10.9622C14.2604 11.4276 14.2469 11.7367 14.2237 11.8035C14.1692 11.9597 14.0424 11.9993 13.597 11.9993H13.2233V12.3731C13.2233 12.8184 13.1836 12.9453 13.0274 12.9997C12.8843 13.0496 11.488 13.0496 11.3448 12.9997C11.1886 12.9453 11.1489 12.8184 11.1489 12.3731V11.9993H10.781C10.336 11.9993 10.2185 11.9651 10.1569 11.8177C10.0989 11.6789 10.092 10.283 10.1486 10.1208C10.203 9.96464 10.3298 9.925 10.7752 9.925H11.1489V9.5571C11.1489 9.11967 11.1838 8.99508 11.3234 8.93431C11.4548 8.87714 12.8682 8.8691 13.0274 8.92462ZM11.6675 9.78019C11.6675 10.3987 11.6222 10.4436 10.9983 10.4436H10.6304V10.9622V11.4808H10.9983C11.6222 11.4808 11.6675 11.5257 11.6675 12.1442V12.5179H12.1861H12.7047V12.1442C12.7047 11.5257 12.75 11.4808 13.374 11.4808H13.7419V10.9622V10.4436H13.374C12.75 10.4436 12.7047 10.3987 12.7047 9.78019V9.40642H12.1861H11.6675V9.78019ZM14.86 13.8609C15.0573 13.9433 15.0573 14.2041 14.86 14.2865C14.6939 14.3559 9.6783 14.3559 9.51225 14.2865C9.31927 14.2059 9.3149 13.945 9.50519 13.8622C9.66248 13.7938 14.6965 13.7925 14.86 13.8609ZM14.86 15.1573C15.0573 15.2398 15.0573 15.5005 14.86 15.583C14.6939 15.6523 9.6783 15.6523 9.51225 15.583C9.31927 15.5023 9.3149 15.2414 9.50519 15.1587C9.66248 15.0903 14.6965 15.089 14.86 15.1573ZM14.86 16.4538C15.0573 16.5362 15.0573 16.797 14.86 16.8794C14.6939 16.9488 9.6783 16.9488 9.51225 16.8794C9.31927 16.7988 9.3149 16.5379 9.50519 16.4552C9.66248 16.3868 14.6965 16.3855 14.86 16.4538Z" fill="white"/>
<path fill-rule="evenodd" clip-rule="evenodd" d="M11.8458 5.06003C11.6149 5.16715 11.4082 5.4491 11.4082 5.65702C11.4082 5.69947 11.3917 5.78174 11.3714 5.83978C11.3072 6.02401 11.2356 6.03562 10.1614 6.03562C9.24745 6.03562 9.20133 6.03853 9.13942 6.10044C9.07891 6.16095 9.0746 6.20847 9.0746 6.81349C9.0746 7.41852 9.07891 7.46603 9.13942 7.52655C9.2033 7.59043 9.24745 7.59137 12.1861 7.59137C15.1248 7.59137 15.1689 7.59043 15.2328 7.52655C15.2933 7.46603 15.2976 7.41852 15.2976 6.81349C15.2976 6.20847 15.2933 6.16095 15.2328 6.10044C15.1709 6.03853 15.1248 6.03562 14.2108 6.03562C13.1366 6.03562 13.065 6.02401 13.0008 5.83978C12.9805 5.78174 12.9637 5.6963 12.9633 5.64995C12.9615 5.43824 12.7385 5.14686 12.5032 5.04872C12.3368 4.97929 12.0076 4.98496 11.8458 5.06003ZM7.43781 6.61578C7.36651 6.64887 7.2615 6.72511 7.20448 6.78523C6.98425 7.01736 7.00026 6.54723 7.00026 12.7772C7.00026 19.0072 6.98425 18.5371 7.20448 18.7692C7.2615 18.8293 7.36651 18.9056 7.43781 18.9387C7.56218 18.9964 7.7558 18.9988 12.179 18.9995C17.2701 19.0003 16.9101 19.0151 17.1409 18.796C17.2011 18.739 17.2773 18.634 17.3104 18.5627C17.3683 18.438 17.3705 18.2185 17.3705 12.7772C17.3705 7.33594 17.3683 7.11648 17.3104 6.99176C17.2773 6.92045 17.2011 6.81544 17.1409 6.75843C16.9533 6.58042 16.8458 6.5542 16.3034 6.5542H15.8162V6.80931V7.06442L16.0494 7.0874C16.4126 7.12319 16.6328 7.26745 16.769 7.55896L16.8372 7.70481V12.761C16.8372 16.9812 16.8297 17.8382 16.7924 17.9441C16.729 18.1237 16.52 18.3377 16.3403 18.407C16.1974 18.4622 15.9646 18.4655 12.1699 18.4655C8.15304 18.4655 8.1508 18.4654 8.00502 18.3973C7.81982 18.3108 7.68975 18.1807 7.60321 17.9955L7.53505 17.8496V12.7772V7.70481L7.60321 7.55896C7.73944 7.26745 7.95961 7.12319 8.32278 7.0874L8.55601 7.06442V6.80931V6.5542L8.06174 6.55491C7.64946 6.5555 7.54594 6.56561 7.43781 6.61578ZM8.10225 7.65619C8.03798 7.72047 8.03743 7.76422 8.03743 12.7772C8.03743 17.7902 8.03798 17.834 8.10225 17.8982C8.16636 17.9624 8.21028 17.9631 12.1861 17.9631C16.1619 17.9631 16.2059 17.9624 16.27 17.8982C16.3342 17.834 16.3348 17.7902 16.3348 12.7772C16.3348 7.76422 16.3342 7.72047 16.27 7.65619C16.2175 7.60375 16.1619 7.59137 15.9791 7.59137C15.7638 7.59137 15.7508 7.59575 15.7057 7.68293C15.6376 7.81472 15.4238 7.99768 15.2776 8.04931C15.0913 8.11511 9.2809 8.11511 9.09466 8.04931C8.94845 7.99768 8.73467 7.81472 8.66654 7.68293C8.62142 7.59575 8.60839 7.59137 8.39311 7.59137C8.21028 7.59137 8.15469 7.60375 8.10225 7.65619ZM13.0274 8.92462C13.1836 8.97907 13.2233 9.1059 13.2233 9.55123V9.925H13.597C14.0424 9.925 14.1692 9.96464 14.2237 10.1208C14.2469 10.1876 14.2604 10.4968 14.2604 10.9622C14.2604 11.4276 14.2469 11.7367 14.2237 11.8035C14.1692 11.9597 14.0424 11.9993 13.597 11.9993H13.2233V12.3731C13.2233 12.8184 13.1836 12.9453 13.0274 12.9997C12.8843 13.0496 11.488 13.0496 11.3448 12.9997C11.1886 12.9453 11.1489 12.8184 11.1489 12.3731V11.9993H10.781C10.336 11.9993 10.2185 11.9651 10.1569 11.8177C10.0989 11.6789 10.092 10.283 10.1486 10.1208C10.203 9.96464 10.3298 9.925 10.7752 9.925H11.1489V9.5571C11.1489 9.11967 11.1838 8.99508 11.3234 8.93431C11.4548 8.87714 12.8682 8.8691 13.0274 8.92462ZM11.6675 9.78019C11.6675 10.3987 11.6222 10.4436 10.9983 10.4436H10.6304V10.9622V11.4808H10.9983C11.6222 11.4808 11.6675 11.5257 11.6675 12.1442V12.5179H12.1861H12.7047V12.1442C12.7047 11.5257 12.75 11.4808 13.374 11.4808H13.7419V10.9622V10.4436H13.374C12.75 10.4436 12.7047 10.3987 12.7047 9.78019V9.40642H12.1861H11.6675V9.78019ZM14.86 13.8609C15.0573 13.9433 15.0573 14.2041 14.86 14.2865C14.6939 14.3559 9.6783 14.3559 9.51225 14.2865C9.31927 14.2059 9.3149 13.945 9.50519 13.8622C9.66248 13.7938 14.6965 13.7925 14.86 13.8609ZM14.86 15.1573C15.0573 15.2398 15.0573 15.5005 14.86 15.583C14.6939 15.6523 9.6783 15.6523 9.51225 15.583C9.31927 15.5023 9.3149 15.2414 9.50519 15.1587C9.66248 15.0903 14.6965 15.089 14.86 15.1573ZM14.86 16.4538C15.0573 16.5362 15.0573 16.797 14.86 16.8794C14.6939 16.9488 9.6783 16.9488 9.51225 16.8794C9.31927 16.7988 9.3149 16.5379 9.50519 16.4552C9.66248 16.3868 14.6965 16.3855 14.86 16.4538Z" fill="white"/>
</svg>
