<svg width="24" height="24" viewBox="0 0 24 24" fill="none" xmlns="http://www.w3.org/2000/svg">
<circle cx="12" cy="12" r="12" fill="#4DAC97"/>
<path fill-rule="evenodd" clip-rule="evenodd" d="M4 8C4 7.46957 4.21071 6.96086 4.58579 6.58579C4.96086 6.21071 5.46957 6 6 6H18C18.5304 6 19.0391 6.21071 19.4142 6.58579C19.7893 6.96086 20 7.46957 20 8V16C20 16.5304 19.7893 17.0391 19.4142 17.4142C19.0391 17.7893 18.5304 18 18 18H6C5.46957 18 4.96086 17.7893 4.58579 17.4142C4.21071 17.0391 4 16.5304 4 16V8ZM6 7C5.73478 7 5.48043 7.10536 5.29289 7.29289C5.10536 7.48043 5 7.73478 5 8V9H19V8C19 7.73478 18.8946 7.48043 18.7071 7.29289C18.5196 7.10536 18.2652 7 18 7H6ZM19 11H5V16C5 16.2652 5.10536 16.5196 5.29289 16.7071C5.48043 16.8946 5.73478 17 6 17H18C18.2652 17 18.5196 16.8946 18.7071 16.7071C18.8946 16.5196 19 16.2652 19 16V11Z" fill="white"/>
<path d="M6 14C6 13.7348 6.10536 13.4804 6.29289 13.2929C6.48043 13.1054 6.73478 13 7 13H8C8.26522 13 8.51957 13.1054 8.70711 13.2929C8.89464 13.4804 9 13.7348 9 14V15C9 15.2652 8.89464 15.5196 8.70711 15.7071C8.51957 15.8946 8.26522 16 8 16H7C6.73478 16 6.48043 15.8946 6.29289 15.7071C6.10536 15.5196 6 15.2652 6 15V14Z" fill="white"/>
</svg>
