<svg width="22" height="22" viewBox="0 0 22 22" fill="none" xmlns="http://www.w3.org/2000/svg">
<path fill-rule="evenodd" clip-rule="evenodd" d="M0 5.5C0 4.77065 0.289731 4.07118 0.805456 3.55546C1.32118 3.03973 2.02065 2.75 2.75 2.75H19.25C19.9793 2.75 20.6788 3.03973 21.1945 3.55546C21.7103 4.07118 22 4.77065 22 5.5V16.5C22 17.2293 21.7103 17.9288 21.1945 18.4445C20.6788 18.9603 19.9793 19.25 19.25 19.25H2.75C2.02065 19.25 1.32118 18.9603 0.805456 18.4445C0.289731 17.9288 0 17.2293 0 16.5V5.5ZM2.75 4.125C2.38533 4.125 2.03559 4.26987 1.77773 4.52773C1.51987 4.78559 1.375 5.13533 1.375 5.5V6.875H20.625V5.5C20.625 5.13533 20.4801 4.78559 20.2223 4.52773C19.9644 4.26987 19.6147 4.125 19.25 4.125H2.75ZM20.625 9.625H1.375V16.5C1.375 16.8647 1.51987 17.2144 1.77773 17.4723C2.03559 17.7301 2.38533 17.875 2.75 17.875H19.25C19.6147 17.875 19.9644 17.7301 20.2223 17.4723C20.4801 17.2144 20.625 16.8647 20.625 16.5V9.625Z" fill="#4DAC97"/>
<path d="M2.75 13.75C2.75 13.3853 2.89487 13.0356 3.15273 12.7777C3.41059 12.5199 3.76033 12.375 4.125 12.375H5.5C5.86467 12.375 6.21441 12.5199 6.47227 12.7777C6.73013 13.0356 6.875 13.3853 6.875 13.75V15.125C6.875 15.4897 6.73013 15.8394 6.47227 16.0973C6.21441 16.3551 5.86467 16.5 5.5 16.5H4.125C3.76033 16.5 3.41059 16.3551 3.15273 16.0973C2.89487 15.8394 2.75 15.4897 2.75 15.125V13.75Z" fill="#4DAC97"/>
</svg>
