<svg width="20" height="22" viewBox="0 0 20 22" fill="none" xmlns="http://www.w3.org/2000/svg">
<path fill-rule="evenodd" clip-rule="evenodd" d="M9.51857 0.0549842C8.30274 0.239561 7.21646 0.795829 6.36504 1.66987C5.43103 2.6287 4.94699 3.7359 4.88043 5.06582C4.78747 6.92329 5.73137 8.69893 7.35875 9.7281C8.1592 10.2343 8.93124 10.4913 9.86637 10.5628C11.5996 10.6954 13.0776 10.1694 14.2707 8.99504C15.2152 8.06544 15.6983 7.05399 15.8159 5.75946C15.973 4.0302 15.2992 2.4197 13.9484 1.29607C13.0773 0.571353 12.2735 0.21342 11.1659 0.0569189C10.6337 -0.0182791 10.0061 -0.01901 9.51857 0.0549842ZM5.47506 10.6591C3.46172 10.8645 2.06655 12.2596 1.41596 14.7182C0.982147 16.3576 0.870577 18.3275 1.15053 19.4046C1.37545 20.2698 2.11717 21.1479 2.97634 21.5659C3.36662 21.7558 3.92416 21.9133 4.38905 21.9649C4.6645 21.9955 6.7672 22.006 10.7874 21.9968L16.7755 21.9831L17.154 21.8828C18.5588 21.5104 19.523 20.6014 19.8739 19.3186C20.0567 18.6504 20.0333 17.0603 19.8221 15.8038C19.3528 13.0107 18.1688 11.3338 16.2958 10.8096C15.8676 10.6898 15.1015 10.5987 14.8743 10.6406C14.6571 10.6807 14.3534 10.8374 13.6678 11.2631C12.9374 11.7165 12.8362 11.7682 12.2893 11.966C11.6559 12.1951 11.1332 12.2918 10.5265 12.2918C9.89945 12.2919 9.41996 12.2089 8.78753 11.9911C8.19032 11.7854 8.16445 11.7722 7.23178 11.2002C6.73995 10.8985 6.37608 10.7053 6.23147 10.6691C5.98434 10.6072 5.98438 10.6072 5.47506 10.6591Z" fill="#BBBBBB"/>
</svg>
