<svg width="24" height="24" viewBox="0 0 24 24" fill="none" xmlns="http://www.w3.org/2000/svg">
<g clip-path="url(#clip0_143_7852)">
<path d="M5.46804 7.3457H7.3848C7.16365 8.38856 7.07857 9.47115 7.07857 10.5159C7.07857 10.8265 7.3305 11.0784 7.64106 11.0784C7.95161 11.0784 8.20354 10.8265 8.20354 10.5159C8.20354 9.47515 8.29134 8.38237 8.53387 7.3457H15.0839C15.3265 8.38237 15.4142 9.47515 15.4142 10.5159C15.4142 10.8265 15.6662 11.0784 15.9767 11.0784C16.2873 11.0784 16.5392 10.8265 16.5392 10.5159C16.5392 9.47115 16.4541 8.38856 16.233 7.3457H18.2333C18.3847 7.3457 18.5081 7.46525 18.5143 7.61506L19.5543 20.29L19.5546 20.29C19.5672 20.4448 19.4521 20.5806 19.2973 20.5933C19.2894 20.594 19.2816 20.5943 19.2738 20.5943H4.42505C4.26972 20.5943 4.1438 20.4683 4.1438 20.313C4.1438 20.3012 4.14453 20.2895 4.14596 20.2781L5.1858 7.60499L5.46595 7.62697L5.18564 7.60397C5.19776 7.45618 5.3221 7.34449 5.46804 7.34572L5.46804 7.3457Z" fill="#4DAC97"/>
<path d="M7.3598 10.5154C7.3598 10.6708 7.48573 10.7967 7.64105 10.7967C7.79638 10.7967 7.9223 10.6708 7.9223 10.5154C7.9223 6.94683 8.95251 4.67848 10.2711 3.69924C10.7586 3.33726 11.2849 3.15626 11.8089 3.15626C12.3329 3.15626 12.8592 3.33726 13.3466 3.69925C14.6653 4.67846 15.6955 6.94679 15.6955 10.5154C15.6955 10.6707 15.8214 10.7967 15.9767 10.7967C16.1321 10.7967 16.258 10.6707 16.258 10.5154C16.258 6.74923 15.1275 4.32327 13.6806 3.24879C13.0926 2.81211 12.4519 2.59375 11.8089 2.59375C11.1659 2.59375 10.5252 2.81209 9.93716 3.24878C8.49024 4.32329 7.3598 6.74927 7.3598 10.5154V10.5154Z" fill="#4DAC97"/>
</g>
<defs>
<clipPath id="clip0_143_7852">
<rect width="24" height="24" fill="white"/>
</clipPath>
</defs>
</svg>
