<svg width="16" height="16" viewBox="0 0 16 16" fill="none" xmlns="http://www.w3.org/2000/svg">
<path d="M8 0.5C6.51664 0.5 5.0666 0.939867 3.83323 1.76398C2.59986 2.58809 1.63856 3.75943 1.07091 5.12987C0.50325 6.50032 0.354725 8.00832 0.644114 9.46318C0.933503 10.918 1.64781 12.2544 2.6967 13.3033C3.7456 14.3522 5.08197 15.0665 6.53683 15.3559C7.99168 15.6453 9.49968 15.4968 10.8701 14.9291C12.2406 14.3614 13.4119 13.4001 14.236 12.1668C15.0601 10.9334 15.5 9.48336 15.5 8C15.5 7.01509 15.306 6.03982 14.9291 5.12987C14.5522 4.21993 13.9997 3.39314 13.3033 2.6967C12.6069 2.00026 11.7801 1.44781 10.8701 1.0709C9.96019 0.693993 8.98492 0.5 8 0.5ZM8 12.5C7.85167 12.5 7.70666 12.456 7.58333 12.3736C7.45999 12.2912 7.36386 12.1741 7.30709 12.037C7.25033 11.9 7.23548 11.7492 7.26441 11.6037C7.29335 11.4582 7.36478 11.3246 7.46967 11.2197C7.57456 11.1148 7.7082 11.0434 7.85369 11.0144C7.99917 10.9855 8.14997 11.0003 8.28702 11.0571C8.42406 11.1139 8.54119 11.21 8.62361 11.3333C8.70602 11.4567 8.75 11.6017 8.75 11.75C8.75 11.9489 8.67099 12.1397 8.53033 12.2803C8.38968 12.421 8.19892 12.5 8 12.5ZM8.75 8.63V9.5C8.75 9.69891 8.67099 9.88968 8.53033 10.0303C8.38968 10.171 8.19892 10.25 8 10.25C7.80109 10.25 7.61033 10.171 7.46967 10.0303C7.32902 9.88968 7.25 9.69891 7.25 9.5V8C7.25 7.80109 7.32902 7.61032 7.46967 7.46967C7.61033 7.32902 7.80109 7.25 8 7.25C8.22251 7.25 8.44001 7.18402 8.62502 7.0604C8.81003 6.93679 8.95422 6.76109 9.03937 6.55552C9.12452 6.34995 9.1468 6.12375 9.10339 5.90552C9.05998 5.68729 8.95283 5.48684 8.7955 5.3295C8.63816 5.17217 8.43771 5.06502 8.21948 5.02162C8.00125 4.97821 7.77505 5.00049 7.56948 5.08564C7.36392 5.17078 7.18822 5.31498 7.0646 5.49998C6.94098 5.68499 6.875 5.9025 6.875 6.125C6.875 6.32391 6.79599 6.51468 6.65533 6.65533C6.51468 6.79598 6.32392 6.875 6.125 6.875C5.92609 6.875 5.73533 6.79598 5.59467 6.65533C5.45402 6.51468 5.375 6.32391 5.375 6.125C5.37304 5.63773 5.50675 5.15952 5.76115 4.74393C6.01556 4.32834 6.38062 3.99176 6.81547 3.77188C7.25031 3.552 7.73778 3.45749 8.22329 3.49895C8.7088 3.5404 9.17319 3.71617 9.56447 4.00659C9.95575 4.297 10.2585 4.69059 10.4387 5.1433C10.619 5.59601 10.6697 6.08995 10.5852 6.56984C10.5006 7.04973 10.2842 7.49662 9.96008 7.86047C9.63596 8.22432 9.21697 8.49077 8.75 8.63Z" fill="#4DAC97"/>
</svg>
