<svg width="24" height="24" viewBox="0 0 24 24" fill="none" xmlns="http://www.w3.org/2000/svg">
<path d="M0.714844 21.9358C0.715179 22.2367 0.83485 22.5251 1.0476 22.7379C1.26035 22.9506 1.54881 23.0703 1.84969 23.0706H18.6897V19.7144C18.69 19.4356 18.8009 19.1684 18.998 18.9713C19.1951 18.7742 19.4623 18.6634 19.7411 18.6631H23.2852V6.28206H0.714844V21.9358ZM6.30637 12.449C6.30637 12.3993 6.32613 12.3516 6.36129 12.3164C6.39646 12.2813 6.44415 12.2615 6.49387 12.2615H10.0607V8.69467C10.0607 8.64494 10.0804 8.59725 10.1156 8.56209C10.1508 8.52693 10.1985 8.50717 10.2482 8.50717H13.7518C13.8015 8.50717 13.8492 8.52693 13.8844 8.56209C13.9196 8.59725 13.9393 8.64494 13.9393 8.69467V12.2615H17.5061C17.5559 12.2615 17.6035 12.2813 17.6387 12.3164C17.6739 12.3516 17.6936 12.3993 17.6936 12.449V15.9527C17.6936 16.0024 17.6739 16.0501 17.6387 16.0852C17.6035 16.1204 17.5559 16.1402 17.5061 16.1402H13.9393V19.707C13.9393 19.7567 13.9196 19.8044 13.8844 19.8396C13.8492 19.8747 13.8015 19.8945 13.7518 19.8945H10.2482C10.1985 19.8945 10.1508 19.8747 10.1156 19.8396C10.0804 19.8044 10.0607 19.7567 10.0607 19.707V16.1402H6.49387C6.44415 16.1402 6.39646 16.1204 6.36129 16.0852C6.32613 16.0501 6.30637 16.0024 6.30637 15.9527V12.449ZM11.5982 3.94122C11.5327 3.88022 11.4806 3.80634 11.4451 3.72423C11.4096 3.64211 11.3915 3.55354 11.3919 3.46408V0.929688H12.6082V3.4907C12.6074 3.64277 12.5501 3.78912 12.4473 3.90116C12.3445 4.01321 12.2036 4.08291 12.0521 4.09666C11.9698 4.104 11.8868 4.09394 11.8086 4.06715C11.7304 4.04036 11.6587 3.99742 11.5982 3.94112V3.94122ZM17.5869 3.94122C17.5215 3.88022 17.4694 3.80635 17.4339 3.72425C17.3984 3.64214 17.3803 3.55357 17.3807 3.46412V0.929688H18.597V3.4907C18.5962 3.64279 18.5388 3.78913 18.436 3.90118C18.3332 4.01322 18.1922 4.08291 18.0408 4.09666C17.9585 4.10395 17.8755 4.09386 17.7973 4.06706C17.7192 4.04026 17.6475 3.99734 17.5869 3.94108V3.94122ZM19.7411 19.0382H23.0062L19.0647 22.8186V19.7146C19.0648 19.5352 19.1362 19.3633 19.263 19.2364C19.3898 19.1096 19.5617 19.0383 19.7411 19.0381V19.0382ZM5.60939 3.94112C5.54396 3.88012 5.49186 3.80624 5.45637 3.72412C5.42087 3.64201 5.40275 3.55344 5.40314 3.46398V0.929688H6.61936V3.4907C6.61864 3.64278 6.56127 3.78912 6.45845 3.90117C6.35562 4.01321 6.21473 4.08291 6.06328 4.09666C5.98095 4.10393 5.89802 4.09385 5.81983 4.06706C5.74165 4.04027 5.66995 3.99736 5.60939 3.94112ZM10.2482 15.7652H6.68137V12.6365H10.2482C10.2979 12.6365 10.3456 12.6168 10.3808 12.5816C10.4159 12.5464 10.4357 12.4988 10.4357 12.449V8.88217H13.5643V12.449C13.5643 12.4988 13.5841 12.5464 13.6192 12.5816C13.6544 12.6168 13.7021 12.6365 13.7518 12.6365H17.3186V15.7652H13.7518C13.7021 15.7652 13.6544 15.7849 13.6192 15.8201C13.5841 15.8552 13.5643 15.9029 13.5643 15.9527V19.5195H10.4357V15.9527C10.4357 15.9029 10.4159 15.8552 10.3808 15.8201C10.3456 15.7849 10.2979 15.7652 10.2482 15.7652ZM23.2852 3.17659V5.90706H0.714844V3.17659C0.71498 3.05071 0.765046 2.93002 0.854056 2.841C0.943067 2.75198 1.06375 2.7019 1.18964 2.70175H5.02809V3.46422C5.02776 3.60558 5.05669 3.74548 5.11306 3.87511C5.16944 4.00474 5.25204 4.1213 5.35566 4.21745C5.53363 4.38277 5.76764 4.47447 6.01055 4.47409C6.03845 4.47409 6.06658 4.47292 6.09492 4.47058C6.33986 4.44843 6.56775 4.33578 6.73409 4.15462C6.90042 3.97347 6.99327 3.73682 6.9945 3.49089V2.70175H11.0171V3.46422C11.0167 3.60557 11.0457 3.74547 11.102 3.8751C11.1584 4.00473 11.241 4.12129 11.3446 4.21745C11.5226 4.38276 11.7566 4.47447 11.9995 4.47409C12.0275 4.47409 12.0556 4.47292 12.0839 4.47058C12.3288 4.44841 12.5567 4.33576 12.723 4.15461C12.8894 3.97346 12.9822 3.73682 12.9834 3.49089V2.70175H17.006V3.46422C17.0057 3.60556 17.0346 3.74545 17.091 3.87507C17.1473 4.00469 17.2299 4.12125 17.3335 4.21741C17.5115 4.38276 17.7455 4.47448 17.9885 4.47409C18.0163 4.47409 18.0444 4.47292 18.0726 4.47058C18.3176 4.44844 18.5455 4.3358 18.7118 4.15464C18.8782 3.97349 18.9711 3.73684 18.9723 3.49089V2.70175H22.8107C22.9365 2.70199 23.0571 2.7521 23.1461 2.84111C23.235 2.93012 23.285 3.05076 23.2852 3.17659Z" fill="#BBBBBB"/>
</svg>
